<svg width="20" height="21" viewBox="0 0 20 21" fill="none" xmlns="http://www.w3.org/2000/svg">
<g id="Icon">
<path id="Comments" fill-rule="evenodd" clip-rule="evenodd" d="M0.833374 7.1211C0.833374 4.91196 2.62424 3.12109 4.83337 3.12109H15.1667C17.3758 3.12109 19.1667 4.91196 19.1667 7.12109V13.2878C19.1667 15.4969 17.3758 17.2878 15.1667 17.2878H8.33337L7.00004 19.3711C6.33337 20.6211 5.1215 20.6211 5.00004 20.6211V20.0232V17.2878H4.83338C2.62424 17.2878 0.833374 15.4969 0.833374 13.2878V7.1211ZM13.3334 9.78776C12.8731 9.78776 12.5 10.1609 12.5 10.6211C12.5 11.0813 12.8731 11.4544 13.3334 11.4544C13.7936 11.4544 14.1667 11.0813 14.1667 10.6211C14.1667 10.1609 13.7936 9.78776 13.3334 9.78776ZM9.16671 10.6211C9.16671 10.1609 9.5398 9.78776 10 9.78776C10.4603 9.78776 10.8334 10.1609 10.8334 10.6211C10.8334 11.0813 10.4603 11.4544 10 11.4544C9.5398 11.4544 9.16671 11.0813 9.16671 10.6211ZM6.66671 9.78776C6.20647 9.78776 5.83337 10.1609 5.83337 10.6211C5.83337 11.0813 6.20647 11.4544 6.66671 11.4544C7.12694 11.4544 7.50004 11.0813 7.50004 10.6211C7.50004 10.1609 7.12694 9.78776 6.66671 9.78776Z" fill="white"/>
</g>
</svg>
