<svg width="20" height="21" viewBox="0 0 20 21" fill="none" xmlns="http://www.w3.org/2000/svg">
<g id="Icon">
<path id="Eye" fill-rule="evenodd" clip-rule="evenodd" d="M10 3.12109C5.835 3.12109 2.17388 5.97947 0.071599 10.2963C-0.0238663 10.492 -0.0238663 10.7502 0.071599 10.9459C2.17388 15.2627 5.835 18.1211 10 18.1211C14.165 18.1211 17.8261 15.2627 19.9284 10.9459C20.0239 10.7502 20.0239 10.492 19.9284 10.2963C17.8261 5.97947 14.165 3.12109 10 3.12109ZM5.83333 10.6211C5.83333 8.3199 7.69881 6.45443 10 6.45443C12.3012 6.45443 14.1667 8.3199 14.1667 10.6211C14.1667 12.9223 12.3012 14.7878 10 14.7878C7.69881 14.7878 5.83333 12.9223 5.83333 10.6211ZM10 12.2878C9.08083 12.2878 8.33333 11.5403 8.33333 10.6211C8.33333 9.70193 9.08083 8.95443 10 8.95443C10.9192 8.95443 11.6667 9.70193 11.6667 10.6211C11.6667 11.5403 10.9192 12.2878 10 12.2878Z" fill="white"/>
</g>
</svg>
