<svg width="27" height="30" viewBox="0 0 27 30" fill="none" xmlns="http://www.w3.org/2000/svg">
<g id="Group">
<path id="Vector" d="M25.5 20.4533V13.7973C25.5 8.07729 25.5 5.21996 23.7427 3.44263C21.9853 1.66663 19.156 1.66663 13.5 1.66663C7.84267 1.66663 5.01467 1.66663 3.25733 3.44263C1.5 5.21996 1.5 8.07996 1.5 13.7973V20.4546C1.5 24.5826 1.5 26.648 2.47867 27.5493C2.94533 27.98 3.53467 28.2506 4.16267 28.3226C5.47867 28.4733 7.016 27.1133 10.0893 24.3946C11.4493 23.1933 12.128 22.592 12.9133 22.4346C13.3 22.3546 13.7 22.3546 14.0867 22.4346C14.8733 22.592 15.552 23.1933 16.9107 24.3946C19.984 27.1133 21.5213 28.4733 22.8373 28.3213C23.464 28.2506 24.0547 27.98 24.5213 27.5493C25.5 26.648 25.5 24.5826 25.5 20.4533Z" stroke="#0B0033" stroke-width="2.5"/>
<path id="Vector_2" d="M17.5 7H9.5" stroke="#0B0033" stroke-width="2.5" stroke-linecap="round"/>
</g>
</svg>
