<svg width="21" height="21" viewBox="0 0 21 21" fill="none" xmlns="http://www.w3.org/2000/svg">
<path id="Vector" d="M5.08333 3C3.93333 3 3 3.93333 3 5.08333V15.9167C3 17.0667 3.93333 18 5.08333 18H15.9167C17.0667 18 18 17.0667 18 15.9167V13.4167C18 13.0851 18.1317 12.7672 18.3661 12.5328C18.6005 12.2984 18.9185 12.1667 19.25 12.1667C19.5815 12.1667 19.8995 12.2984 20.1339 12.5328C20.3683 12.7672 20.5 13.0851 20.5 13.4167V15.9167C20.5 17.1322 20.0171 18.298 19.1576 19.1576C18.298 20.0171 17.1322 20.5 15.9167 20.5H5.08333C3.86776 20.5 2.70197 20.0171 1.84243 19.1576C0.982886 18.298 0.5 17.1322 0.5 15.9167V5.08333C0.5 3.86776 0.982886 2.70197 1.84243 1.84243C2.70197 0.982886 3.86776 0.5 5.08333 0.5H7.58333C7.91485 0.5 8.2328 0.631696 8.46722 0.866116C8.70164 1.10054 8.83333 1.41848 8.83333 1.75C8.83333 2.08152 8.70164 2.39946 8.46722 2.63388C8.2328 2.8683 7.91485 3 7.58333 3H5.08333ZM10.5 1.75C10.5 1.41848 10.6317 1.10054 10.8661 0.866116C11.1005 0.631696 11.4185 0.5 11.75 0.5H19.25C19.5815 0.5 19.8995 0.631696 20.1339 0.866116C20.3683 1.10054 20.5 1.41848 20.5 1.75V9.25C20.5 9.58152 20.3683 9.89946 20.1339 10.1339C19.8995 10.3683 19.5815 10.5 19.25 10.5C18.9185 10.5 18.6005 10.3683 18.3661 10.1339C18.1317 9.89946 18 9.58152 18 9.25V4.76833L12.6333 10.135C12.518 10.2543 12.38 10.3495 12.2275 10.4149C12.0749 10.4804 11.9109 10.5148 11.7449 10.5161C11.5789 10.5175 11.4143 10.4858 11.2608 10.4229C11.1072 10.3599 10.9676 10.2671 10.8503 10.1496C10.733 10.0322 10.6403 9.89262 10.5775 9.73897C10.5147 9.58532 10.4832 9.42071 10.4847 9.25473C10.4862 9.08876 10.5208 8.92475 10.5864 8.77228C10.6519 8.61981 10.7472 8.48192 10.8667 8.36667L16.2333 3H11.75C11.4185 3 11.1005 2.8683 10.8661 2.63388C10.6317 2.39946 10.5 2.08152 10.5 1.75Z" fill="#0B0033"/>
</svg>
