<svg width="324" height="96" viewBox="0 0 324 96" fill="none" xmlns="http://www.w3.org/2000/svg">
<path fill-rule="evenodd" clip-rule="evenodd" d="M66.6245 7.47478C67.5732 9.20666 67.3344 37.312 66.3627 38.2609C66.024 38.591 57.3723 39.0236 47.1367 39.2222L28.5252 39.5833V41.3889V43.1944L47.1367 43.5556C57.3723 43.7542 66.024 44.1875 66.3627 44.5183C66.7006 44.8498 66.9772 47.7055 66.9772 50.8644C66.9772 55.184 66.7021 56.778 65.868 57.2929C65.2269 57.6887 54.2577 57.9827 39.859 57.9892L14.9584 58L12.8065 56.2313C9.60392 53.5988 6.05673 46.4972 4.77376 40.1474C2.43411 28.5673 5.5465 14.8205 12.1358 7.625L13.6244 6H39.7199C65.2402 6 65.834 6.0325 66.6245 7.47478ZM96.5556 18.1586C114.923 28.5297 118 30.5072 118 31.9415C118 33.3773 114.895 35.362 96.1948 45.8761C79.8313 55.0771 74.1108 57.9653 73.2715 57.4482C72.3161 56.8596 72.1253 53.2 71.9582 32.2874C71.851 18.8274 71.9242 7.40689 72.1202 6.90784C72.3161 6.40806 73.0696 6.01083 73.7943 6.02455C74.5182 6.03828 84.7612 11.4983 96.5556 18.1586ZM28.4232 21.5278C28.1888 22.1236 28.1888 23.0986 28.4232 23.6944C29.0554 25.305 51.453 25.305 52.0859 23.6944C52.3196 23.0986 52.3196 22.1236 52.0859 21.5278C51.453 19.9172 29.0554 19.9172 28.4232 21.5278ZM86.5729 32C86.5729 34.4649 87.9735 34.8622 89.9293 32.9519C91.0955 31.813 91.0895 31.6764 89.8413 30.7852C87.6681 29.2332 86.5729 29.6405 86.5729 32Z" fill="#6100FF"/>
<path d="M71.9217 6.82993C71.9065 6.86865 71.8978 6.91471 71.8917 6.95257C71.8848 6.99517 71.8786 7.04694 71.8727 7.10631C71.861 7.22532 71.85 7.38381 71.8397 7.57826C71.819 7.96765 71.8004 8.50967 71.784 9.18596C71.7512 10.539 71.727 12.4354 71.7123 14.7359C71.6829 19.3372 71.6914 25.5584 71.7451 32.2891C71.8286 42.7438 71.9181 48.8922 72.1064 52.5004C72.2005 54.3028 72.3196 55.4828 72.478 56.2523C72.6334 57.0078 72.8376 57.4313 73.1597 57.6297C73.253 57.6872 73.3634 57.7113 73.4759 57.7174C73.5896 57.7236 73.7194 57.7122 73.8634 57.6867C74.151 57.6359 74.5213 57.5244 74.9812 57.3517C75.9024 57.0056 77.2159 56.4013 79.0076 55.4967C82.5929 53.6868 88.1177 50.6623 96.2993 46.0619C105.648 40.8059 111.105 37.6779 114.225 35.684C115.783 34.6881 116.77 33.9678 117.369 33.4007C117.966 32.8355 118.213 32.3894 118.213 31.9415C118.213 31.4947 117.969 31.0496 117.379 30.487C116.788 29.9229 115.815 29.208 114.281 28.222C111.209 26.248 105.842 23.1575 96.6605 17.973C90.7622 14.6422 85.2513 11.6113 81.1238 9.41101C79.0603 8.31099 77.3414 7.41794 76.0923 6.7987C75.468 6.48923 74.959 6.24712 74.5822 6.08155C74.394 5.99888 74.2361 5.93409 74.1119 5.88936C73.9986 5.84859 73.884 5.81306 73.7983 5.81143C73.3978 5.80385 72.9928 5.90927 72.6595 6.0851C72.3302 6.25882 72.0451 6.51552 71.9217 6.82993ZM71.9217 6.82993L72.1202 6.90784L71.9217 6.83003C71.9217 6.82999 71.9217 6.82996 71.9217 6.82993ZM66.8114 7.37237L66.8114 7.37233C66.7109 7.18892 66.6028 7.00721 66.4374 6.84509C66.2698 6.68085 66.0542 6.54674 65.7489 6.43558C65.15 6.21761 64.1747 6.07782 62.4576 5.9837C59.0127 5.79488 52.476 5.78684 39.7199 5.78684H13.6244H13.5306L13.4672 5.85602L11.9787 7.48102L11.9786 7.48104C8.652 11.1137 6.21341 16.3866 4.89853 22.1949C3.58324 28.005 3.38847 34.3673 4.56483 40.1896C5.21042 43.3848 6.42463 46.7654 7.87958 49.6785C9.332 52.5866 11.0356 55.0515 12.6712 56.3959L14.823 58.1647L14.882 58.2132L14.9584 58.2132L39.8591 58.2023C47.0596 58.1991 53.4036 58.124 58.0283 58.0001C60.3404 57.9382 62.2245 57.8641 63.5717 57.7805C64.2449 57.7388 64.7867 57.6945 65.1819 57.6479C65.3792 57.6246 65.5433 57.6004 65.6704 57.5749C65.7865 57.5516 65.9031 57.5218 65.98 57.4743C66.4794 57.166 66.7702 56.5571 66.9455 55.5417C67.1219 54.5191 67.1904 53.0245 67.1904 50.8644C67.1904 49.2795 67.121 47.7689 67.0089 46.6105C66.9528 46.0319 66.8857 45.5371 66.8102 45.1633C66.7726 44.9768 66.7319 44.8156 66.6877 44.6872C66.6468 44.5683 66.5926 44.4452 66.512 44.3661L66.5117 44.3658C66.4695 44.3246 66.4178 44.3016 66.3852 44.2888C66.3469 44.2736 66.3027 44.2604 66.2558 44.2485C66.1615 44.2246 66.0384 44.2017 65.8912 44.1793C65.5957 44.1345 65.1848 44.0892 64.674 44.0439C63.6513 43.9533 62.2151 43.8618 60.4717 43.7745C56.9843 43.5998 52.2602 43.4418 47.1409 43.3424L28.7384 42.9854V41.3889V39.7924L47.1409 39.4353C52.2602 39.336 56.9843 39.1781 60.4717 39.0038C62.2151 38.9166 63.6513 38.8252 64.6739 38.7348C65.1848 38.6896 65.5956 38.6444 65.8911 38.5996C66.0384 38.5773 66.1614 38.5544 66.2557 38.5306C66.3026 38.5188 66.3467 38.5056 66.3851 38.4905C66.4176 38.4776 66.4693 38.4547 66.5115 38.4136L66.5117 38.4134C66.5792 38.3475 66.622 38.251 66.6524 38.1657C66.6858 38.0721 66.7163 37.956 66.7447 37.8221C66.8017 37.5539 66.8545 37.1946 66.9036 36.7607C67.002 35.8915 67.0876 34.704 67.1598 33.3048C67.3042 30.5053 67.3956 26.8458 67.4269 23.1633C67.4582 19.4807 67.4295 15.7724 67.3335 12.8752C67.2855 11.427 67.2207 10.179 67.1378 9.23725C67.0964 8.76667 67.0502 8.36941 66.9988 8.06051C66.9492 7.76207 66.8904 7.5165 66.8114 7.37237ZM28.6216 21.6058L28.6216 21.6057C28.6222 21.6041 28.6315 21.584 28.6754 21.55C28.7181 21.517 28.7823 21.4795 28.8725 21.4396C29.0529 21.3597 29.3108 21.2815 29.6421 21.2073C30.303 21.0593 31.2216 20.9345 32.3176 20.8341C34.5076 20.6336 37.3794 20.533 40.2543 20.533C43.1292 20.533 46.0011 20.6336 48.1911 20.8341C49.2871 20.9345 50.2058 21.0593 50.8668 21.2073C51.1982 21.2815 51.4561 21.3597 51.6366 21.4396C51.7267 21.4795 51.791 21.517 51.8337 21.5501C51.8776 21.5841 51.8869 21.6042 51.8876 21.6057C51.9917 21.8715 52.048 22.2358 52.048 22.6111C52.048 22.9864 51.9917 23.3508 51.8876 23.6165C51.8869 23.618 51.8776 23.6382 51.8337 23.6722C51.791 23.7052 51.7267 23.7427 51.6366 23.7826C51.4561 23.8625 51.1982 23.9407 50.8668 24.0149C50.2058 24.1629 49.2871 24.2877 48.1911 24.3881C46.0011 24.5886 43.1292 24.6892 40.2543 24.6892C37.3794 24.6892 34.5076 24.5886 32.3176 24.3881C31.2216 24.2878 30.303 24.1629 29.6421 24.0149C29.3108 23.9407 29.0529 23.8625 28.8725 23.7826C28.7823 23.7427 28.7181 23.7052 28.6754 23.6722C28.6315 23.6382 28.6222 23.6181 28.6216 23.6166L28.6216 23.6164C28.517 23.3508 28.4605 22.9864 28.4605 22.6111C28.4605 22.2358 28.517 21.8715 28.6216 21.6058ZM89.7175 30.9587L89.8413 30.7852L89.7175 30.9587C90.0315 31.1829 90.252 31.3491 90.3959 31.4912C90.5404 31.634 90.5752 31.7214 90.5777 31.7844C90.5805 31.8514 90.5496 31.9524 90.4142 32.1281C90.2809 32.3012 90.0734 32.5132 89.7804 32.7994C89.3017 33.267 88.8665 33.5837 88.4884 33.7631C88.1091 33.9431 87.8059 33.9768 87.5758 33.9116C87.3524 33.8482 87.1586 33.6802 87.0162 33.3686C86.8717 33.0526 86.7861 32.5993 86.7861 32C86.7861 31.4231 86.8535 30.9854 86.9762 30.6749C87.0972 30.3687 87.2652 30.2004 87.4664 30.1256C87.6745 30.0482 87.9599 30.0551 88.3432 30.1896C88.7252 30.3236 89.1827 30.5768 89.7175 30.9587Z" stroke="black" stroke-opacity="0.18" stroke-width="0.426316"/>
<path d="M133.422 51V12.4545H156.685V16.5952H138.09V29.6193H155.481V33.7599H138.09V46.8594H156.986V51H133.422ZM175.412 51.6023C173.003 51.6023 170.876 50.9937 169.032 49.7766C167.187 48.547 165.744 46.8155 164.703 44.582C163.662 42.3361 163.141 39.6823 163.141 36.6207C163.141 33.5843 163.662 30.9493 164.703 28.7159C165.744 26.4825 167.194 24.7572 169.051 23.5401C170.908 22.323 173.053 21.7145 175.487 21.7145C177.37 21.7145 178.856 22.0282 179.948 22.6555C181.052 23.2704 181.893 23.973 182.47 24.7635C183.06 25.5414 183.518 26.1813 183.844 26.6832H184.22V12.4545H188.662V51H184.371V46.5582H183.844C183.518 47.0852 183.054 47.7502 182.451 48.5533C181.849 49.3437 180.989 50.0527 179.873 50.68C178.756 51.2949 177.269 51.6023 175.412 51.6023ZM176.014 47.6122C177.796 47.6122 179.302 47.148 180.532 46.2195C181.761 45.2784 182.696 43.9798 183.336 42.3235C183.976 40.6547 184.296 38.7287 184.296 36.5455C184.296 34.3873 183.982 32.4989 183.355 30.8803C182.727 29.2492 181.799 27.9819 180.569 27.0785C179.34 26.1625 177.821 25.7045 176.014 25.7045C174.132 25.7045 172.564 26.1876 171.309 27.1538C170.067 28.1074 169.132 29.406 168.505 31.0497C167.89 32.6809 167.583 34.5128 167.583 36.5455C167.583 38.6032 167.896 40.4728 168.524 42.1541C169.164 43.8229 170.105 45.1529 171.347 46.1442C172.602 47.1229 174.157 47.6122 176.014 47.6122ZM199.597 12.4545L211.04 44.902H211.492L222.935 12.4545H227.829L213.675 51H208.857L194.704 12.4545H199.597ZM233.23 51V22.0909H237.672V51H233.23ZM235.489 17.2727C234.623 17.2727 233.877 16.9779 233.249 16.3881C232.634 15.7984 232.327 15.0895 232.327 14.2614C232.327 13.4332 232.634 12.7243 233.249 12.1346C233.877 11.5449 234.623 11.25 235.489 11.25C236.355 11.25 237.095 11.5449 237.71 12.1346C238.337 12.7243 238.651 13.4332 238.651 14.2614C238.651 15.0895 238.337 15.7984 237.71 16.3881C237.095 16.9779 236.355 17.2727 235.489 17.2727ZM266.285 28.5653L262.295 29.6946C262.044 29.0296 261.674 28.3834 261.184 27.756C260.708 27.1161 260.055 26.5891 259.227 26.1751C258.399 25.761 257.339 25.554 256.046 25.554C254.277 25.554 252.803 25.9618 251.623 26.7773C250.456 27.5804 249.873 28.603 249.873 29.8452C249.873 30.9493 250.274 31.8214 251.077 32.4613C251.88 33.1012 253.135 33.6345 254.842 34.0611L259.133 35.1151C261.718 35.7424 263.644 36.7023 264.911 37.9947C266.178 39.2745 266.812 40.9245 266.812 42.9446C266.812 44.6009 266.335 46.0814 265.381 47.3864C264.44 48.6913 263.123 49.7202 261.429 50.473C259.735 51.2259 257.765 51.6023 255.519 51.6023C252.571 51.6023 250.13 50.9624 248.198 49.6825C246.266 48.4027 245.042 46.5331 244.528 44.0739L248.744 43.0199C249.145 44.5758 249.904 45.7427 251.021 46.5206C252.15 47.2985 253.625 47.6875 255.444 47.6875C257.514 47.6875 259.158 47.2483 260.375 46.37C261.605 45.4792 262.219 44.4126 262.219 43.1705C262.219 42.1667 261.868 41.326 261.165 40.6484C260.463 39.9583 259.384 39.4439 257.928 39.1051L253.11 37.9759C250.463 37.3485 248.518 36.3761 247.276 35.0586C246.046 33.7286 245.431 32.0661 245.431 30.071C245.431 28.4399 245.889 26.9969 246.805 25.7422C247.734 24.4875 248.995 23.5025 250.588 22.7873C252.194 22.0721 254.013 21.7145 256.046 21.7145C258.907 21.7145 261.153 22.3419 262.784 23.5966C264.428 24.8513 265.595 26.5076 266.285 28.5653ZM286.07 22.0909V25.8551H271.089V22.0909H286.07ZM275.455 15.1648H279.897V42.7188C279.897 43.9735 280.079 44.9145 280.443 45.5419C280.819 46.1567 281.296 46.5708 281.873 46.7841C282.463 46.9848 283.084 47.0852 283.737 47.0852C284.226 47.0852 284.627 47.0601 284.941 47.0099C285.255 46.9472 285.506 46.897 285.694 46.8594L286.597 50.8494C286.296 50.9624 285.876 51.0753 285.336 51.1882C284.797 51.3137 284.113 51.3764 283.285 51.3764C282.03 51.3764 280.801 51.1067 279.596 50.5671C278.404 50.0276 277.413 49.2057 276.622 48.1016C275.844 46.9974 275.455 45.6046 275.455 43.9233V15.1648ZM304.186 51.6023C301.576 51.6023 299.286 50.9812 297.316 49.739C295.359 48.4968 293.828 46.759 292.724 44.5256C291.632 42.2921 291.086 39.6823 291.086 36.696C291.086 33.6847 291.632 31.056 292.724 28.81C293.828 26.564 295.359 24.82 297.316 23.5778C299.286 22.3356 301.576 21.7145 304.186 21.7145C306.795 21.7145 309.079 22.3356 311.036 23.5778C313.006 24.82 314.537 26.564 315.629 28.81C316.733 31.056 317.285 33.6847 317.285 36.696C317.285 39.6823 316.733 42.2921 315.629 44.5256C314.537 46.759 313.006 48.4968 311.036 49.739C309.079 50.9812 306.795 51.6023 304.186 51.6023ZM304.186 47.6122C306.168 47.6122 307.799 47.104 309.079 46.0877C310.359 45.0714 311.306 43.7351 311.921 42.0788C312.536 40.4226 312.843 38.6283 312.843 36.696C312.843 34.7637 312.536 32.9632 311.921 31.2944C311.306 29.6256 310.359 28.2768 309.079 27.2479C307.799 26.219 306.168 25.7045 304.186 25.7045C302.203 25.7045 300.572 26.219 299.292 27.2479C298.012 28.2768 297.065 29.6256 296.45 31.2944C295.835 32.9632 295.528 34.7637 295.528 36.696C295.528 38.6283 295.835 40.4226 296.45 42.0788C297.065 43.7351 298.012 45.0714 299.292 46.0877C300.572 47.104 302.203 47.6122 304.186 47.6122Z" fill="white"/>
<path d="M2.31836 91V75H4.25586V89.2812H11.6934V91H2.31836ZM14.6934 91V75H24.3496V76.7187H16.6309V82.125H23.8496V83.8437H16.6309V89.2812H24.4746V91H14.6934ZM28.498 91H26.4668L32.3418 75H34.3418L40.2168 91H38.1855L33.4043 77.5312H33.2793L28.498 91ZM29.248 84.75H37.4355V86.4687H29.248V84.75ZM42.709 91V75H48.1152C49.3652 75 50.3913 75.2135 51.1934 75.6406C51.9954 76.0625 52.5892 76.6432 52.9746 77.3828C53.36 78.1224 53.5527 78.9635 53.5527 79.9062C53.5527 80.849 53.36 81.6849 52.9746 82.4141C52.5892 83.1432 51.998 83.7161 51.2012 84.1328C50.4043 84.5443 49.3861 84.75 48.1465 84.75H43.7715V83H48.084C48.9382 83 49.6257 82.875 50.1465 82.625C50.6725 82.375 51.0527 82.0208 51.2871 81.5625C51.5267 81.099 51.6465 80.5469 51.6465 79.9062C51.6465 79.2656 51.5267 78.7057 51.2871 78.2266C51.0475 77.7474 50.6647 77.3776 50.1387 77.1172C49.6126 76.8516 48.9173 76.7187 48.0527 76.7187H44.6465V91H42.709ZM50.2402 83.8125L54.1777 91H51.9277L48.0527 83.8125H50.2402ZM69.4688 75V91H67.5938L58.875 78.4375H58.7188V91H56.7813V75H58.6562L67.4063 87.5937H67.5625V75H69.4688ZM75.2832 75V91H73.3457V75H75.2832ZM91.8555 75V91H89.9805L81.2617 78.4375H81.1055V91H79.168V75H81.043L89.793 87.5937H89.9492V75H91.8555ZM106.67 80C106.498 79.474 106.271 79.0026 105.99 78.5859C105.714 78.1641 105.383 77.8047 104.998 77.5078C104.618 77.2109 104.186 76.9844 103.701 76.8281C103.217 76.6719 102.686 76.5937 102.107 76.5937C101.16 76.5937 100.298 76.8385 99.5215 77.3281C98.7454 77.8177 98.1283 78.5391 97.6699 79.4922C97.2116 80.4453 96.9824 81.6146 96.9824 83C96.9824 84.3854 97.2142 85.5547 97.6777 86.5078C98.1413 87.4609 98.7689 88.1823 99.5605 88.6719C100.352 89.1615 101.243 89.4062 102.232 89.4062C103.149 89.4062 103.956 89.2109 104.654 88.8203C105.357 88.4245 105.904 87.8672 106.295 87.1484C106.691 86.4245 106.889 85.5729 106.889 84.5937L107.482 84.7187H102.67V83H108.764V84.7187C108.764 86.0365 108.482 87.1823 107.92 88.1562C107.363 89.1302 106.592 89.8854 105.607 90.4219C104.628 90.9531 103.503 91.2187 102.232 91.2187C100.816 91.2187 99.571 90.8854 98.498 90.2188C97.4303 89.5521 96.597 88.6042 95.998 87.375C95.4043 86.1458 95.1074 84.6875 95.1074 83C95.1074 81.7344 95.2767 80.5964 95.6152 79.5859C95.959 78.5703 96.4434 77.7057 97.0684 76.9922C97.6934 76.2786 98.4329 75.7318 99.2871 75.3516C100.141 74.9714 101.081 74.7812 102.107 74.7812C102.951 74.7812 103.738 74.9089 104.467 75.1641C105.201 75.4141 105.855 75.7708 106.428 76.2344C107.006 76.6927 107.488 77.2422 107.873 77.8828C108.258 78.5182 108.524 79.224 108.67 80H106.67ZM117.395 76.7187V75H129.395V76.7187H124.363V91H122.426V76.7187H117.395ZM132.385 91V75H134.322V82.125H142.854V75H144.791V91H142.854V83.8437H134.322V91H132.385ZM148.67 91V75H154.076C155.326 75 156.352 75.2135 157.154 75.6406C157.956 76.0625 158.55 76.6432 158.936 77.3828C159.321 78.1224 159.514 78.9635 159.514 79.9062C159.514 80.849 159.321 81.6849 158.936 82.4141C158.55 83.1432 157.959 83.7161 157.162 84.1328C156.365 84.5443 155.347 84.75 154.107 84.75H149.732V83H154.045C154.899 83 155.587 82.875 156.107 82.625C156.633 82.375 157.014 82.0208 157.248 81.5625C157.488 81.099 157.607 80.5469 157.607 79.9062C157.607 79.2656 157.488 78.7057 157.248 78.2266C157.008 77.7474 156.626 77.3776 156.1 77.1172C155.574 76.8516 154.878 76.7187 154.014 76.7187H150.607V91H148.67ZM156.201 83.8125L160.139 91H157.889L154.014 83.8125H156.201ZM176.242 83C176.242 84.6875 175.938 86.1458 175.328 87.375C174.719 88.6042 173.883 89.5521 172.82 90.2188C171.758 90.8854 170.544 91.2187 169.18 91.2187C167.815 91.2187 166.602 90.8854 165.539 90.2188C164.477 89.5521 163.641 88.6042 163.031 87.375C162.422 86.1458 162.117 84.6875 162.117 83C162.117 81.3125 162.422 79.8542 163.031 78.625C163.641 77.3958 164.477 76.4479 165.539 75.7812C166.602 75.1146 167.815 74.7812 169.18 74.7812C170.544 74.7812 171.758 75.1146 172.82 75.7812C173.883 76.4479 174.719 77.3958 175.328 78.625C175.938 79.8542 176.242 81.3125 176.242 83ZM174.367 83C174.367 81.6146 174.135 80.4453 173.672 79.4922C173.214 78.5391 172.591 77.8177 171.805 77.3281C171.023 76.8385 170.148 76.5937 169.18 76.5937C168.211 76.5937 167.333 76.8385 166.547 77.3281C165.766 77.8177 165.143 78.5391 164.68 79.4922C164.221 80.4453 163.992 81.6146 163.992 83C163.992 84.3854 164.221 85.5547 164.68 86.5078C165.143 87.4609 165.766 88.1823 166.547 88.6719C167.333 89.1615 168.211 89.4062 169.18 89.4062C170.148 89.4062 171.023 89.1615 171.805 88.6719C172.591 88.1823 173.214 87.4609 173.672 86.5078C174.135 85.5547 174.367 84.3854 174.367 83ZM190 75H191.938V85.5937C191.938 86.6875 191.68 87.6641 191.164 88.5234C190.654 89.3776 189.932 90.0521 189 90.5469C188.068 91.0365 186.974 91.2813 185.719 91.2813C184.464 91.2813 183.37 91.0365 182.438 90.5469C181.505 90.0521 180.781 89.3776 180.266 88.5234C179.755 87.6641 179.5 86.6875 179.5 85.5937V75H181.438V85.4375C181.438 86.2187 181.609 86.9141 181.953 87.5234C182.297 88.1276 182.786 88.6042 183.422 88.9531C184.063 89.2969 184.828 89.4687 185.719 89.4687C186.609 89.4687 187.375 89.2969 188.016 88.9531C188.656 88.6042 189.146 88.1276 189.484 87.5234C189.828 86.9141 190 86.2187 190 85.4375V75ZM206.744 80C206.572 79.474 206.346 79.0026 206.064 78.5859C205.788 78.1641 205.458 77.8047 205.072 77.5078C204.692 77.2109 204.26 76.9844 203.775 76.8281C203.291 76.6719 202.76 76.5937 202.182 76.5937C201.234 76.5937 200.372 76.8385 199.596 77.3281C198.82 77.8177 198.202 78.5391 197.744 79.4922C197.286 80.4453 197.057 81.6146 197.057 83C197.057 84.3854 197.288 85.5547 197.752 86.5078C198.215 87.4609 198.843 88.1823 199.635 88.6719C200.426 89.1615 201.317 89.4062 202.307 89.4062C203.223 89.4062 204.031 89.2109 204.729 88.8203C205.432 88.4245 205.979 87.8672 206.369 87.1484C206.765 86.4245 206.963 85.5729 206.963 84.5937L207.557 84.7187H202.744V83H208.838V84.7187C208.838 86.0365 208.557 87.1823 207.994 88.1562C207.437 89.1302 206.666 89.8854 205.682 90.4219C204.702 90.9531 203.577 91.2187 202.307 91.2187C200.89 91.2187 199.645 90.8854 198.572 90.2188C197.505 89.5521 196.671 88.6042 196.072 87.375C195.479 86.1458 195.182 84.6875 195.182 83C195.182 81.7344 195.351 80.5964 195.689 79.5859C196.033 78.5703 196.518 77.7057 197.143 76.9922C197.768 76.2786 198.507 75.7318 199.361 75.3516C200.215 74.9714 201.156 74.7812 202.182 74.7812C203.025 74.7812 203.812 74.9089 204.541 75.1641C205.275 75.4141 205.929 75.7708 206.502 76.2344C207.08 76.6927 207.562 77.2422 207.947 77.8828C208.333 78.5182 208.598 79.224 208.744 80H206.744ZM212.156 91V75H214.094V82.125H222.625V75H224.563V91H222.625V83.8437H214.094V91H212.156ZM243.379 79C243.285 78.2083 242.905 77.5938 242.238 77.1562C241.572 76.7187 240.754 76.5 239.785 76.5C239.077 76.5 238.457 76.6146 237.926 76.8437C237.4 77.0729 236.988 77.388 236.691 77.7891C236.4 78.1901 236.254 78.6458 236.254 79.1562C236.254 79.5833 236.355 79.9505 236.559 80.2578C236.767 80.5599 237.033 80.8125 237.355 81.0156C237.678 81.2135 238.017 81.3776 238.371 81.5078C238.725 81.6328 239.051 81.7344 239.348 81.8125L240.973 82.25C241.389 82.3594 241.853 82.5104 242.363 82.7031C242.879 82.8958 243.371 83.1589 243.84 83.4922C244.314 83.8203 244.704 84.2422 245.012 84.7578C245.319 85.2734 245.473 85.9062 245.473 86.6562C245.473 87.5208 245.246 88.3021 244.793 89C244.345 89.6979 243.689 90.2526 242.824 90.6641C241.965 91.0755 240.921 91.2813 239.691 91.2813C238.546 91.2813 237.553 91.0964 236.715 90.7266C235.882 90.3568 235.225 89.8411 234.746 89.1797C234.272 88.5182 234.004 87.75 233.941 86.875H235.941C235.993 87.4792 236.197 87.9792 236.551 88.375C236.91 88.7656 237.363 89.0573 237.91 89.25C238.462 89.4375 239.056 89.5312 239.691 89.5312C240.431 89.5312 241.095 89.4115 241.684 89.1719C242.272 88.9271 242.738 88.5885 243.082 88.1562C243.426 87.7187 243.598 87.2083 243.598 86.625C243.598 86.0937 243.449 85.6615 243.152 85.3281C242.855 84.9948 242.465 84.724 241.98 84.5156C241.496 84.3073 240.973 84.125 240.41 83.9687L238.441 83.4062C237.191 83.0469 236.202 82.5339 235.473 81.8672C234.743 81.2005 234.379 80.3281 234.379 79.25C234.379 78.3542 234.621 77.5729 235.105 76.9062C235.595 76.2344 236.251 75.7135 237.074 75.3437C237.902 74.9687 238.827 74.7812 239.848 74.7812C240.879 74.7812 241.796 74.9661 242.598 75.3359C243.4 75.7005 244.035 76.2005 244.504 76.8359C244.978 77.4714 245.228 78.1927 245.254 79H243.379ZM247.783 76.7187V75H259.783V76.7187H254.752V91H252.814V76.7187H247.783ZM275.607 83C275.607 84.6875 275.303 86.1458 274.693 87.375C274.084 88.6042 273.248 89.5521 272.186 90.2188C271.123 90.8854 269.91 91.2187 268.545 91.2187C267.18 91.2187 265.967 90.8854 264.904 90.2188C263.842 89.5521 263.006 88.6042 262.396 87.375C261.787 86.1458 261.482 84.6875 261.482 83C261.482 81.3125 261.787 79.8542 262.396 78.625C263.006 77.3958 263.842 76.4479 264.904 75.7812C265.967 75.1146 267.18 74.7812 268.545 74.7812C269.91 74.7812 271.123 75.1146 272.186 75.7812C273.248 76.4479 274.084 77.3958 274.693 78.625C275.303 79.8542 275.607 81.3125 275.607 83ZM273.732 83C273.732 81.6146 273.501 80.4453 273.037 79.4922C272.579 78.5391 271.956 77.8177 271.17 77.3281C270.389 76.8385 269.514 76.5937 268.545 76.5937C267.576 76.5937 266.699 76.8385 265.912 77.3281C265.131 77.8177 264.508 78.5391 264.045 79.4922C263.587 80.4453 263.357 81.6146 263.357 83C263.357 84.3854 263.587 85.5547 264.045 86.5078C264.508 87.4609 265.131 88.1823 265.912 88.6719C266.699 89.1615 267.576 89.4062 268.545 89.4062C269.514 89.4062 270.389 89.1615 271.17 88.6719C271.956 88.1823 272.579 87.4609 273.037 86.5078C273.501 85.5547 273.732 84.3854 273.732 83ZM278.865 91V75H284.271C285.521 75 286.548 75.2135 287.35 75.6406C288.152 76.0625 288.745 76.6432 289.131 77.3828C289.516 78.1224 289.709 78.9635 289.709 79.9062C289.709 80.849 289.516 81.6849 289.131 82.4141C288.745 83.1432 288.154 83.7161 287.357 84.1328C286.561 84.5443 285.542 84.75 284.303 84.75H279.928V83H284.24C285.094 83 285.782 82.875 286.303 82.625C286.829 82.375 287.209 82.0208 287.443 81.5625C287.683 81.099 287.803 80.5469 287.803 79.9062C287.803 79.2656 287.683 78.7057 287.443 78.2266C287.204 77.7474 286.821 77.3776 286.295 77.1172C285.769 76.8516 285.074 76.7187 284.209 76.7187H280.803V91H278.865ZM286.396 83.8125L290.334 91H288.084L284.209 83.8125H286.396ZM294.875 75V91H292.938V75H294.875ZM298.76 91V75H308.416V76.7187H300.697V82.125H307.916V83.8437H300.697V89.2812H308.541V91H298.76ZM320.658 79C320.564 78.2083 320.184 77.5938 319.518 77.1562C318.851 76.7187 318.033 76.5 317.064 76.5C316.356 76.5 315.736 76.6146 315.205 76.8437C314.679 77.0729 314.268 77.388 313.971 77.7891C313.679 78.1901 313.533 78.6458 313.533 79.1562C313.533 79.5833 313.635 79.9505 313.838 80.2578C314.046 80.5599 314.312 80.8125 314.635 81.0156C314.958 81.2135 315.296 81.3776 315.65 81.5078C316.005 81.6328 316.33 81.7344 316.627 81.8125L318.252 82.25C318.669 82.3594 319.132 82.5104 319.643 82.7031C320.158 82.8958 320.65 83.1589 321.119 83.4922C321.593 83.8203 321.984 84.2422 322.291 84.7578C322.598 85.2734 322.752 85.9062 322.752 86.6562C322.752 87.5208 322.525 88.3021 322.072 89C321.624 89.6979 320.968 90.2526 320.104 90.6641C319.244 91.0755 318.2 91.2813 316.971 91.2813C315.825 91.2813 314.833 91.0964 313.994 90.7266C313.161 90.3568 312.505 89.8411 312.025 89.1797C311.551 88.5182 311.283 87.75 311.221 86.875H313.221C313.273 87.4792 313.476 87.9792 313.83 88.375C314.189 88.7656 314.643 89.0573 315.189 89.25C315.742 89.4375 316.335 89.5312 316.971 89.5312C317.71 89.5312 318.374 89.4115 318.963 89.1719C319.551 88.9271 320.018 88.5885 320.361 88.1562C320.705 87.7187 320.877 87.2083 320.877 86.625C320.877 86.0937 320.729 85.6615 320.432 85.3281C320.135 84.9948 319.744 84.724 319.26 84.5156C318.775 84.3073 318.252 84.125 317.689 83.9687L315.721 83.4062C314.471 83.0469 313.481 82.5339 312.752 81.8672C312.023 81.2005 311.658 80.3281 311.658 79.25C311.658 78.3542 311.9 77.5729 312.385 76.9062C312.874 76.2344 313.531 75.7135 314.354 75.3437C315.182 74.9687 316.106 74.7812 317.127 74.7812C318.158 74.7812 319.075 74.9661 319.877 75.3359C320.679 75.7005 321.314 76.2005 321.783 76.8359C322.257 77.4714 322.507 78.1927 322.533 79H320.658Z" fill="white"/>
</svg>
