<?xml version="1.0" encoding="UTF-8"?><svg id="Capa_1" xmlns="http://www.w3.org/2000/svg" viewBox="0 0 2326 738"><defs><style>.cls-1{fill:#0b0033;}.cls-2{fill:#1cbbc4;}.cls-3{fill:#6100ff;}</style></defs><g><path class="cls-3" d="M1642.61,533.64c-45.66,0-91.31,.09-136.97-.07-10.12-.04-19.05-3.61-26.49-10.86-8.13-7.92-13.88-17.49-19.37-27.21-9.76-17.3-16.77-35.75-21.25-55.07-2.27-9.8-3.68-19.82-5.35-29.75-2.55-15.12-2.56-30.4-1.94-45.62,.63-15.44,2.72-30.77,6.22-45.87,4.75-20.46,11.89-40.04,22.05-58.43,5.85-10.59,12.11-20.97,21.21-29.23,5.55-5.03,12.05-8.41,19.58-8.72,12.63-.51,25.28-.63,37.92-.74,13.49-.12,26.98-.08,40.47-.01,39.27,.2,78.55,.59,117.82,.63,27.17,.03,54.34-.47,81.5-.59,4.78-.02,9.46,.93,13.71,3.48,4.56,2.74,6.61,7.17,6.9,11.96,.51,8.19,.15,16.43,.15,24.65,0,.92,0,1.84,0,2.77,0,33.43-.06,66.86,.03,100.29,.03,11.26,.61,22.51,.56,33.77-.02,3.79-.74,7.75-2.01,11.32-2.81,7.95-9.67,10.4-17.2,10.45-30.44,.2-60.87,.08-91.31,.08-32.51,0-65.02-.02-97.54,.04-2.6,0-5.28,.21-7.79,.84-6.48,1.62-10.57,5.98-10.33,14.39,.17,6.05,4,10.91,10.46,12.06,4.91,.87,9.95,1.4,14.94,1.41,60.99,.09,121.98,.05,182.97,.1,2.48,0,5.02,.35,7.43,.96,7.04,1.76,9.21,6.07,9.71,14.22,.37,5.97-.02,11.99,.1,17.98,.1,5.15,.73,10.3,.59,15.44-.22,8.11-.51,16.25-1.48,24.29-.77,6.34-5.6,10.04-12.22,10.35-7.33,.34-14.67,.67-22.01,.68-40.35,.07-80.7,.03-121.06,.03Zm.11-224.84c-18.78,0-37.57-.04-56.35,.02-7,.02-12.45,4.49-13.09,10.99-.73,7.4,1.41,12.88,9.13,15.01,2.81,.77,5.79,1.31,8.69,1.32,33.07,.09,66.14,.08,99.22,.03,3.76,0,7.55-.21,11.27-.72,12.08-1.66,13.12-14.13,9.33-20.49-2.87-4.81-7.56-6.06-12.53-6.1-18.55-.15-37.1-.06-55.66-.06Z"/><path class="cls-3" d="M1831.62,378.36c0-43.35-.08-86.7,.09-130.05,.02-5.52,.96-11.12,2.12-16.54,1.41-6.57,7.92-10.22,14.65-7.89,6.18,2.14,12.17,5.04,17.91,8.21,11.64,6.42,23.05,13.28,34.57,19.91,11.24,6.46,22.52,12.85,33.75,19.31,11.63,6.69,23.22,13.45,34.82,20.18,18.88,10.96,37.75,21.94,56.65,32.86,18.41,10.64,36.89,21.15,55.26,31.85,6.08,3.54,12.14,7.19,17.83,11.31,6.62,4.79,9.11,14.14,1.72,19.82-5.93,4.56-12.12,8.84-18.53,12.7-12.17,7.33-24.58,14.27-36.88,21.38-11.22,6.49-22.42,13.01-33.65,19.49-11.13,6.42-22.29,12.78-33.41,19.21-11.22,6.48-22.42,13.02-33.63,19.52-11.31,6.55-22.63,13.1-33.95,19.62-11.43,6.58-22.82,13.25-34.34,19.67-8.61,4.8-16.66,10.65-26.3,13.51-9.22,2.74-14.72,.07-16.88-9.16-1.11-4.73-1.72-9.68-1.74-14.53-.13-43.46-.08-86.93-.08-130.39Zm85.56,.26l.51,.08c0,2.07-.2,4.17,.04,6.22,.52,4.43,2.67,6.75,6.24,5.89,4.15-1,8.61-1.64,12.22-3.69,5.86-3.32,6.4-8.88,2.91-13.78-3.96-5.55-10.24-6.9-16.66-6.97-1.2-.01-3.14,1.45-3.5,2.61-.95,3.1-1.22,6.41-1.77,9.63Z"/></g><g><path class="cls-3" d="M375.83,400.7c7.88,0,14.18,6.3,14.18,13.87v31.2c0,7.88-6.3,14.18-14.18,14.18h-127.3c-7.88,0-14.18-6.3-14.18-14.18V253.23c0-7.56,6.3-13.87,14.18-13.87h124.47c7.56,0,13.86,6.3,13.86,13.87v31.51c0,7.56-6.3,13.86-13.86,13.86h-67.75v24.58h57.66c7.88,0,14.18,6.3,14.18,13.86v23c0,7.88-6.3,14.18-14.18,14.18h-57.66v26.47h70.58Z"/><path class="cls-3" d="M531.81,239.36h40.02c6.3,0,11.34,5.04,11.34,11.34v197.89c0,6.3-5.04,11.34-11.34,11.34h-42.86c-4.73,0-8.51-3.78-8.51-8.51v-3.78c-9.77,9.77-23.32,16.07-41.28,16.07-49.79,0-74.05-41.59-74.05-83.51s24.26-83.82,74.05-83.82c17.65,0,31.2,5.99,41.28,15.44v-61.13c0-6.3,5.04-11.34,11.34-11.34Zm-12.92,140.85c0-15.12-10.08-25.84-25.84-25.84s-25.52,10.71-25.52,25.84,10.08,25.53,25.52,25.53,25.84-10.71,25.84-25.53Z"/><path class="cls-2" d="M765.61,239.36h49.79c7.88,0,13.23,7.56,10.71,14.81l-64.91,194.11c-2.21,6.93-8.82,11.66-16.07,11.66h-61.76c-7.25,0-13.86-4.73-16.07-11.66l-64.91-194.11c-2.52-7.25,2.84-14.81,10.71-14.81h49.79c6.3,0,11.97,4.1,13.55,10.4l37.81,136.76,37.81-136.76c1.58-6.3,7.25-10.4,13.55-10.4Z"/><path class="cls-2" d="M843.75,255.43c0-17.96,14.5-32.46,32.46-32.46s32.46,14.5,32.46,32.46-14.5,32.46-32.46,32.46-32.46-14.5-32.46-32.46Zm1.26,193.16v-137.07c0-6.3,5.04-11.34,11.34-11.34h40.02c5.99,0,11.03,5.04,11.03,11.34v137.07c0,6.3-5.04,11.34-11.03,11.34h-40.02c-6.3,0-11.34-5.04-11.34-11.34Z"/><path class="cls-2" d="M1069.68,409.52c0,36.24-28.99,54.2-75.94,54.2-27.1,0-58.3-6.62-69.95-27.73-2.52-4.41-.32-10.4,4.73-11.97l39.07-11.97c3.15-.94,6.93,0,8.82,2.52,2.84,3.47,7.88,6.62,16.07,6.62,9.45,0,14.81-3.78,14.81-9.45,0-8.19-13.23-8.82-29.31-12.29-31.51-6.62-53.25-16.7-53.25-50.1,0-35.29,32.77-52.94,73.42-52.94,23.95,0,50.42,9.45,61.45,29.94,2.84,4.73,0,10.71-5.36,12.29l-33.4,7.88c-3.15,.94-6.62,0-8.51-2.52-3.15-3.78-7.88-5.67-13.55-5.67-8.82,0-14.18,3.78-14.18,9.45,0,7.56,9.14,8.51,22.06,11.34,40.33,8.51,63.02,19.54,63.02,50.42Z"/><path class="cls-2" d="M1182.49,353.43h-20.17v34.03c0,9.77,5.36,17.65,19.22,17.65,.95,0,2.21,0,3.47-.32,4.73-.32,8.82,3.78,8.82,8.51v40.02c0,3.78-3.15,7.25-6.93,8.19-4.73,.95-10.71,1.58-20.8,1.58-53.25,0-66.17-39.07-66.17-70.27v-39.39h-11.34c-5.99,0-11.03-5.04-11.03-11.03v-30.88c0-6.3,5.04-11.34,11.03-11.34h11.34v-22.37c0-5.99,5.04-11.03,11.34-11.03h39.7c6.3,0,11.34,5.04,11.34,11.03v22.37h20.17c6.3,0,11.34,5.04,11.34,11.34v30.88c0,5.99-5.04,11.03-11.34,11.03Z"/><path class="cls-2" d="M1385.74,380.21c0,49.47-38.13,83.82-88.23,83.82s-87.92-34.35-87.92-83.82,38.13-83.82,87.92-83.82,88.23,34.03,88.23,83.82Zm-62.39,0c0-15.12-10.08-25.84-25.84-25.84s-25.52,10.71-25.52,25.84,10.08,25.84,25.52,25.84,25.84-10.71,25.84-25.84Z"/></g><g><path class="cls-1" d="M235.24,491.65c0-.39,.13-.72,.39-1,.26-.28,.62-.42,1.09-.42h6.39c.39,0,.72,.12,1.01,.37,.29,.25,.43,.6,.43,1.05v37.61h20.17c.39,0,.72,.13,1,.4,.28,.27,.42,.63,.42,1.08v5.9c0,.39-.13,.72-.39,1.01-.26,.29-.6,.43-1.03,.43h-28.07c-.94,0-1.41-.47-1.41-1.42v-45.02Z"/><path class="cls-1" d="M279.1,491.78c0-1.03,.47-1.55,1.42-1.55h31.07c.56,0,.95,.16,1.19,.47,.24,.31,.35,.71,.35,1.18v5.69c0,.39-.13,.73-.4,1.03-.27,.3-.67,.45-1.21,.45h-22.91v9.76h17.66c.43-.04,.77,.05,1.03,.27,.26,.23,.39,.61,.39,1.14v5.83c0,.39-.11,.73-.32,1.03-.21,.3-.56,.45-1.03,.45h-17.72v11.7h23.75c.6,0,1,.13,1.19,.39s.29,.66,.29,1.2v5.89c0,.91-.47,1.36-1.42,1.36h-31.9c-.39,0-.72-.11-1-.32s-.42-.56-.42-1.03v-44.95Z"/><path class="cls-1" d="M324.7,536.9c.11-.43,.23-.83,.37-1.19,.14-.37,.26-.7,.37-1l17.37-43.25c.06-.24,.24-.5,.53-.79s.68-.43,1.18-.43h5.19c.51,0,.89,.13,1.11,.39,.23,.26,.39,.48,.5,.68l1.06,2.51,17.02,42.57c0,.06,.02,.18,.05,.34,.03,.16,.05,.29,.05,.4,0,.64-.47,.97-1.42,.97h-6.35c-.47,0-.84-.1-1.09-.29-.26-.19-.47-.49-.64-.9l-.58-1.48-1.22-3.09c-.41-1.03-.8-2.07-1.19-3.13h-19.88c-.56,1.5-1.1,2.92-1.63,4.24s-.97,2.48-1.34,3.46c-.3,.8-.86,1.19-1.68,1.19h-6.45c-.41,0-.74-.08-.98-.23-.25-.15-.37-.38-.37-.68,0-.13,.01-.23,.03-.29Zm22.43-34.38c-1.16,2.97-2.32,6.04-3.46,9.22-1.15,3.18-2.3,6.24-3.46,9.19h13.73l-6.8-18.4Z"/><path class="cls-1" d="M382.8,491.75c0-1.01,.47-1.51,1.42-1.51h19.72c2.17,0,4.2,.41,6.09,1.22,1.89,.82,3.54,1.92,4.95,3.32,1.41,1.4,2.51,3.04,3.32,4.93,.81,1.89,1.21,3.9,1.21,6.03,0,1.48-.2,2.9-.61,4.25-.41,1.35-.98,2.61-1.71,3.77-.73,1.16-1.6,2.21-2.61,3.14s-2.13,1.72-3.35,2.37l8.38,16.53c.04,.21,.12,.43,.23,.64s.16,.44,.16,.68c0,.64-.38,.97-1.13,.97h-7.48c-.77,0-1.29-.4-1.55-1.19l-7.8-15.47c-.34,0-.71,0-1.11,.02-.4,.01-.95,.02-1.64,.02h-7.11v15.24c0,.92-.49,1.39-1.48,1.39h-6.48c-.43,0-.77-.11-1.03-.34-.26-.23-.39-.57-.39-1.05v-44.95Zm27.17,14.03c0-.92-.17-1.82-.52-2.68-.34-.87-.83-1.65-1.45-2.33-.62-.69-1.36-1.24-2.22-1.67-.86-.43-1.79-.68-2.8-.74-.75-.02-1.49-.04-2.21-.05-.72-.01-1.47-.02-2.24-.02h-6.35v14.95h9.72c.38,0,.78-.02,1.21-.06,1.01-.06,1.94-.3,2.79-.71,.85-.41,1.57-.95,2.18-1.62,.6-.68,1.07-1.45,1.4-2.31,.33-.87,.5-1.79,.5-2.75Z"/><path class="cls-1" d="M434.1,491.69c0-.41,.12-.75,.37-1.03,.25-.28,.6-.42,1.05-.42h7.41c.3,0,.59,.07,.85,.21,.27,.14,.51,.36,.72,.66,3.67,5.24,7.31,10.45,10.92,15.61,3.61,5.17,7.25,10.37,10.92,15.61v-30.87c.06-.39,.23-.69,.48-.9,.26-.21,.57-.32,.93-.32h6.22c.43,0,.8,.13,1.11,.39,.31,.26,.47,.6,.47,1.03v45.12c0,.88-.5,1.32-1.51,1.32h-6.99c-.47,0-.91-.29-1.32-.87-3.78-5.48-7.55-10.95-11.29-16.42-3.75-5.47-7.5-10.95-11.26-16.45v32.32c0,.47-.11,.83-.34,1.06s-.61,.35-1.14,.35h-6.19c-.49,0-.85-.12-1.08-.37-.23-.25-.34-.59-.34-1.02v-45.02Z"/><path class="cls-1" d="M492.46,491.65c0-.39,.12-.72,.35-1,.24-.28,.59-.42,1.06-.42h6.39c.36,0,.71,.13,1.03,.39,.32,.26,.48,.6,.48,1.03v45.02c0,.95-.5,1.42-1.51,1.42h-6.39c-.94,0-1.41-.47-1.41-1.42v-45.02Z"/><path class="cls-1" d="M518.72,491.69c0-.41,.12-.75,.37-1.03,.25-.28,.6-.42,1.05-.42h7.41c.3,0,.59,.07,.85,.21,.27,.14,.51,.36,.72,.66,3.67,5.24,7.31,10.45,10.92,15.61,3.61,5.17,7.25,10.37,10.92,15.61v-30.87c.06-.39,.23-.69,.48-.9,.26-.21,.57-.32,.93-.32h6.22c.43,0,.8,.13,1.11,.39,.31,.26,.47,.6,.47,1.03v45.12c0,.88-.5,1.32-1.51,1.32h-6.99c-.47,0-.91-.29-1.32-.87-3.78-5.48-7.55-10.95-11.29-16.42-3.75-5.47-7.5-10.95-11.26-16.45v32.32c0,.47-.11,.83-.34,1.06s-.61,.35-1.14,.35h-6.19c-.49,0-.85-.12-1.08-.37-.23-.25-.34-.59-.34-1.02v-45.02Z"/><path class="cls-1" d="M606.83,518.08c0-.43,.12-.77,.35-1.03,.24-.26,.59-.39,1.06-.39h5.25c.36,0,.71,.13,1.03,.39,.32,.26,.48,.6,.48,1.03v14.79c0,.26-.06,.5-.19,.74-.13,.24-.36,.46-.71,.68-.02,0-.03,0-.03,.02,0,.01-.01,.02-.03,.02-1.01,.71-2.09,1.34-3.26,1.9-1.16,.56-2.37,1.03-3.64,1.4-1.27,.38-2.57,.66-3.9,.87-1.33,.2-2.67,.31-4,.31-2.26,0-4.44-.29-6.54-.87-2.11-.58-4.07-1.41-5.88-2.48-1.82-1.07-3.47-2.36-4.96-3.85-1.49-1.49-2.78-3.15-3.85-4.96-1.07-1.81-1.9-3.77-2.48-5.87-.58-2.09-.87-4.28-.87-6.56s.29-4.43,.87-6.53c.58-2.1,1.41-4.05,2.48-5.88,1.07-1.83,2.36-3.49,3.85-4.99,1.49-1.5,3.15-2.79,4.98-3.87,1.83-1.07,3.79-1.91,5.88-2.5,2.09-.59,4.28-.88,6.56-.88,1.53,0,3.05,.13,4.56,.4,1.51,.27,2.98,.67,4.4,1.21,.54,.21,1.18,.48,1.92,.8,.74,.32,1.44,.68,2.11,1.06s1.23,.78,1.69,1.19c.46,.41,.69,.81,.69,1.19,0,.17-.1,.45-.29,.82-.19,.38-.43,.8-.72,1.27-.29,.47-.62,.96-.98,1.47s-.72,.96-1.06,1.37c-.34,.41-.66,.75-.93,1.01-.28,.27-.49,.4-.64,.4-.13,0-.28-.03-.47-.08-.18-.05-.37-.16-.56-.31-1.35-.94-2.88-1.7-4.58-2.26s-3.43-.84-5.19-.84c-2.3,0-4.4,.43-6.32,1.29-1.91,.86-3.56,2.02-4.93,3.48-1.37,1.46-2.45,3.15-3.22,5.08-.77,1.92-1.16,3.95-1.16,6.07s.41,4.25,1.24,6.17c.83,1.92,1.94,3.6,3.35,5.03,1.41,1.43,3.06,2.56,4.95,3.38,1.89,.83,3.9,1.24,6.03,1.24,.79,0,1.58-.06,2.35-.18s1.5-.27,2.18-.45c.68-.18,1.28-.39,1.82-.61,.54-.23,.98-.45,1.32-.66v-10.05Z"/><path class="cls-1" d="M655.03,491.65c0-.43,.14-.77,.42-1.03,.28-.26,.63-.39,1.06-.39h33.9c.39,0,.74,.12,1.05,.35,.31,.24,.49,.59,.53,1.06v5.64c0,.43-.13,.81-.4,1.13-.27,.32-.66,.48-1.18,.48h-12.25v37.7c0,.39-.13,.73-.4,1.03-.27,.3-.64,.45-1.11,.45h-6.35c-.39,0-.74-.14-1.05-.42-.31-.28-.47-.63-.47-1.06v-37.7h-12.28c-.43,0-.78-.13-1.06-.4-.28-.27-.42-.67-.42-1.21v-5.64Z"/><path class="cls-1" d="M706.01,491.65c0-.36,.12-.69,.37-.98,.25-.29,.58-.43,1.01-.43h6.42c.36,0,.71,.14,1.03,.42,.32,.28,.48,.61,.48,1v16.69h21.62v-16.69c0-.39,.13-.72,.39-1,.26-.28,.6-.42,1.03-.42h6.33c.43,0,.8,.12,1.11,.37,.31,.25,.47,.59,.47,1.02v45.05c0,.95-.5,1.42-1.51,1.42h-6.39c-.94,0-1.41-.47-1.41-1.42v-19.5h-21.62v19.5c0,.95-.53,1.42-1.57,1.42h-6.36c-.92,0-1.38-.44-1.38-1.32v-45.12Z"/><path class="cls-1" d="M763.15,491.75c0-1.01,.47-1.51,1.42-1.51h19.72c2.17,0,4.2,.41,6.09,1.22,1.89,.82,3.54,1.92,4.95,3.32,1.41,1.4,2.51,3.04,3.32,4.93,.81,1.89,1.21,3.9,1.21,6.03,0,1.48-.2,2.9-.61,4.25-.41,1.35-.98,2.61-1.71,3.77s-1.6,2.21-2.61,3.14c-1.01,.93-2.13,1.72-3.35,2.37l8.38,16.53c.04,.21,.12,.43,.23,.64s.16,.44,.16,.68c0,.64-.38,.97-1.13,.97h-7.48c-.77,0-1.29-.4-1.55-1.19l-7.8-15.47c-.34,0-.71,0-1.11,.02-.4,.01-.95,.02-1.64,.02h-7.11v15.24c0,.92-.49,1.39-1.48,1.39h-6.48c-.43,0-.77-.11-1.03-.34-.26-.23-.39-.57-.39-1.05v-44.95Zm27.17,14.03c0-.92-.17-1.82-.52-2.68-.34-.87-.83-1.65-1.45-2.33-.62-.69-1.36-1.24-2.22-1.67-.86-.43-1.79-.68-2.8-.74-.75-.02-1.49-.04-2.21-.05-.72-.01-1.47-.02-2.24-.02h-6.35v14.95h9.72c.38,0,.78-.02,1.21-.06,1.01-.06,1.94-.3,2.79-.71,.85-.41,1.57-.95,2.18-1.62,.6-.68,1.07-1.45,1.4-2.31,.33-.87,.5-1.79,.5-2.75Z"/><path class="cls-1" d="M812.52,514.21c0-2.26,.29-4.44,.87-6.54,.58-2.11,1.41-4.07,2.48-5.9,1.07-1.83,2.36-3.49,3.85-4.99,1.49-1.5,3.15-2.79,4.98-3.85,1.83-1.06,3.79-1.89,5.88-2.48,2.09-.59,4.28-.88,6.56-.88s4.43,.29,6.53,.88c2.09,.59,4.05,1.42,5.88,2.48s3.49,2.35,4.99,3.85c1.5,1.5,2.79,3.17,3.85,4.99s1.89,3.79,2.48,5.9c.59,2.11,.89,4.3,.89,6.57s-.3,4.46-.89,6.54c-.59,2.08-1.42,4.04-2.48,5.87-1.06,1.83-2.35,3.49-3.85,4.98-1.5,1.49-3.17,2.77-4.99,3.83-1.83,1.06-3.79,1.89-5.88,2.47-2.1,.58-4.28,.87-6.56,.87s-4.46-.29-6.56-.87c-2.1-.58-4.06-1.41-5.88-2.48s-3.49-2.36-4.98-3.85c-1.49-1.49-2.77-3.15-3.83-4.96-1.06-1.81-1.89-3.77-2.47-5.87-.58-2.09-.87-4.28-.87-6.56Zm9.31-.06c0,2.17,.39,4.2,1.18,6.09,.78,1.89,1.86,3.53,3.22,4.93,1.36,1.4,2.98,2.5,4.83,3.32,1.86,.82,3.87,1.22,6.04,1.22s4.15-.41,6.01-1.22c1.86-.82,3.47-1.92,4.85-3.32s2.45-3.04,3.24-4.93c.78-1.89,1.18-3.92,1.18-6.09s-.39-4.17-1.18-6.06c-.78-1.89-1.86-3.54-3.24-4.95-1.37-1.41-2.99-2.52-4.85-3.34-1.86-.82-3.86-1.22-6.01-1.22s-4.18,.41-6.04,1.22c-1.86,.82-3.47,1.93-4.83,3.34-1.36,1.41-2.44,3.06-3.22,4.95-.78,1.89-1.18,3.91-1.18,6.06Z"/><path class="cls-1" d="M885.6,518.66c0,1.81,.26,3.43,.77,4.87,.51,1.44,1.24,2.66,2.17,3.66s2.05,1.76,3.35,2.29c1.3,.53,2.75,.79,4.33,.79,1.68,0,3.18-.28,4.51-.84,1.33-.56,2.45-1.35,3.37-2.37,.91-1.02,1.61-2.25,2.09-3.67,.48-1.43,.72-3,.72-4.72v-27c0-.39,.14-.72,.42-1,.28-.28,.63-.42,1.06-.42h6.23c.45,0,.83,.14,1.14,.42,.31,.28,.47,.61,.47,1v27.36c0,3.33-.54,6.24-1.61,8.72-1.07,2.48-2.52,4.55-4.35,6.2s-3.95,2.89-6.38,3.71c-2.43,.82-4.99,1.22-7.7,1.22s-5.27-.43-7.7-1.3c-2.43-.87-4.55-2.14-6.38-3.82-1.82-1.68-3.27-3.75-4.35-6.22-1.07-2.47-1.61-5.31-1.61-8.51v-27.36c0-.34,.12-.67,.37-.97,.25-.3,.56-.45,.95-.45h6.57c.32,0,.65,.14,1,.42,.34,.28,.51,.61,.51,1v27Z"/><path class="cls-1" d="M962.07,518.08c0-.43,.12-.77,.35-1.03,.24-.26,.59-.39,1.06-.39h5.25c.36,0,.71,.13,1.03,.39,.32,.26,.48,.6,.48,1.03v14.79c0,.26-.06,.5-.19,.74-.13,.24-.36,.46-.71,.68-.02,0-.03,0-.03,.02,0,.01-.01,.02-.03,.02-1.01,.71-2.09,1.34-3.26,1.9-1.16,.56-2.37,1.03-3.64,1.4-1.27,.38-2.57,.66-3.9,.87-1.33,.2-2.67,.31-4,.31-2.26,0-4.44-.29-6.54-.87-2.11-.58-4.07-1.41-5.88-2.48-1.82-1.07-3.47-2.36-4.96-3.85-1.49-1.49-2.78-3.15-3.85-4.96-1.07-1.81-1.9-3.77-2.48-5.87-.58-2.09-.87-4.28-.87-6.56s.29-4.43,.87-6.53c.58-2.1,1.41-4.05,2.48-5.88,1.07-1.83,2.36-3.49,3.85-4.99,1.49-1.5,3.15-2.79,4.98-3.87,1.83-1.07,3.79-1.91,5.88-2.5,2.09-.59,4.28-.88,6.56-.88,1.53,0,3.05,.13,4.56,.4,1.51,.27,2.98,.67,4.4,1.21,.54,.21,1.18,.48,1.92,.8,.74,.32,1.44,.68,2.11,1.06s1.23,.78,1.69,1.19c.46,.41,.69,.81,.69,1.19,0,.17-.1,.45-.29,.82-.19,.38-.43,.8-.72,1.27-.29,.47-.62,.96-.98,1.47s-.72,.96-1.06,1.37c-.34,.41-.66,.75-.93,1.01-.28,.27-.49,.4-.64,.4-.13,0-.28-.03-.47-.08-.18-.05-.37-.16-.56-.31-1.35-.94-2.88-1.7-4.58-2.26s-3.43-.84-5.19-.84c-2.3,0-4.4,.43-6.32,1.29-1.91,.86-3.56,2.02-4.93,3.48-1.37,1.46-2.45,3.15-3.22,5.08-.77,1.92-1.16,3.95-1.16,6.07s.41,4.25,1.24,6.17c.83,1.92,1.94,3.6,3.35,5.03,1.41,1.43,3.06,2.56,4.95,3.38,1.89,.83,3.9,1.24,6.03,1.24,.79,0,1.58-.06,2.35-.18s1.5-.27,2.18-.45c.68-.18,1.28-.39,1.82-.61,.54-.23,.98-.45,1.32-.66v-10.05Z"/><path class="cls-1" d="M986.72,491.65c0-.36,.12-.69,.37-.98,.25-.29,.58-.43,1.01-.43h6.42c.36,0,.71,.14,1.03,.42,.32,.28,.48,.61,.48,1v16.69h21.62v-16.69c0-.39,.13-.72,.39-1,.26-.28,.6-.42,1.03-.42h6.33c.43,0,.8,.12,1.11,.37,.31,.25,.47,.59,.47,1.02v45.05c0,.95-.5,1.42-1.51,1.42h-6.39c-.94,0-1.41-.47-1.41-1.42v-19.5h-21.62v19.5c0,.95-.53,1.42-1.57,1.42h-6.36c-.92,0-1.38-.44-1.38-1.32v-45.12Z"/><path class="cls-1" d="M1097.74,503c-.28,0-.54-.07-.77-.21-.24-.14-.5-.33-.8-.56l-.06-.03c-.41-.41-.93-.86-1.58-1.35-.64-.49-1.36-.96-2.16-1.39s-1.65-.79-2.56-1.09c-.91-.3-1.84-.45-2.79-.45-1.2,0-2.27,.13-3.19,.4-.92,.27-1.7,.63-2.32,1.1-.62,.46-1.1,1-1.42,1.63s-.48,1.29-.48,2c0,.77,.24,1.45,.72,2.03,.48,.58,1.14,1.1,1.97,1.55,.83,.45,1.78,.86,2.85,1.24,1.07,.38,2.2,.75,3.38,1.11,1.35,.41,2.7,.85,4.03,1.32s2.61,1,3.82,1.59c1.21,.59,2.35,1.25,3.4,1.97,1.05,.72,1.96,1.55,2.72,2.48s1.36,1.98,1.8,3.13c.44,1.15,.66,2.45,.66,3.88,0,2.34-.47,4.46-1.42,6.35-.95,1.89-2.25,3.51-3.92,4.85-1.66,1.34-3.62,2.38-5.86,3.09-2.25,.72-4.66,1.08-7.23,1.08-1.65,0-3.3-.19-4.93-.58-1.63-.39-3.2-.93-4.7-1.64-1.5-.71-2.93-1.56-4.27-2.56s-2.54-2.12-3.59-3.37v.03l-.06-.13c-.47-.54-.71-1.03-.71-1.48,0-.24,.06-.46,.19-.68,.13-.21,.32-.45,.58-.71l1.06-1.06c.32-.28,.67-.59,1.03-.93,.36-.34,.73-.65,1.1-.93,.36-.28,.7-.51,1.01-.71s.56-.29,.76-.29c.3,0,.58,.1,.84,.29s.47,.38,.64,.55l.13,.13h-.03c.75,.71,1.59,1.39,2.53,2.03s1.9,1.22,2.89,1.72c.99,.5,1.97,.9,2.95,1.19,.98,.29,1.9,.44,2.76,.44,1.18,0,2.29-.15,3.32-.45s1.92-.72,2.68-1.27c.75-.55,1.34-1.21,1.77-1.98,.43-.77,.64-1.63,.64-2.58s-.28-1.76-.84-2.43c-.56-.68-1.29-1.27-2.19-1.77s-1.92-.94-3.05-1.3c-1.13-.37-2.26-.71-3.4-1.03-2.62-.79-4.91-1.65-6.88-2.58-1.97-.92-3.6-1.96-4.91-3.11-1.31-1.15-2.29-2.44-2.95-3.87-.65-1.43-.98-3.03-.98-4.82,0-2,.4-3.82,1.21-5.46,.8-1.64,1.95-3.05,3.43-4.22,1.48-1.17,3.27-2.08,5.35-2.74s4.41-.98,6.99-.98c1.95,0,3.94,.31,5.96,.92,2.02,.61,3.89,1.46,5.61,2.53,.52,.32,1.04,.69,1.58,1.09,.54,.41,1.03,.82,1.48,1.24,.45,.42,.82,.83,1.11,1.22,.29,.4,.43,.74,.43,1.02,0,.26-.06,.52-.19,.79-.13,.27-.29,.51-.48,.73l-.97,1.03v-.03c-.32,.34-.66,.7-1,1.06s-.69,.69-1.03,.98-.65,.53-.93,.72-.51,.29-.71,.29Z"/><path class="cls-1" d="M1116.46,491.65c0-.43,.14-.77,.42-1.03,.28-.26,.63-.39,1.06-.39h33.9c.39,0,.74,.12,1.05,.35,.31,.24,.49,.59,.53,1.06v5.64c0,.43-.13,.81-.4,1.13-.27,.32-.66,.48-1.18,.48h-12.25v37.7c0,.39-.13,.73-.4,1.03-.27,.3-.64,.45-1.11,.45h-6.35c-.39,0-.74-.14-1.05-.42-.31-.28-.47-.63-.47-1.06v-37.7h-12.28c-.43,0-.78-.13-1.06-.4-.28-.27-.42-.67-.42-1.21v-5.64Z"/><path class="cls-1" d="M1165.51,514.21c0-2.26,.29-4.44,.87-6.54,.58-2.11,1.41-4.07,2.48-5.9,1.07-1.83,2.36-3.49,3.85-4.99,1.49-1.5,3.15-2.79,4.98-3.85,1.83-1.06,3.79-1.89,5.88-2.48,2.09-.59,4.28-.88,6.56-.88s4.43,.29,6.53,.88c2.09,.59,4.05,1.42,5.88,2.48,1.83,1.06,3.49,2.35,4.99,3.85,1.5,1.5,2.79,3.17,3.85,4.99,1.06,1.83,1.89,3.79,2.48,5.9,.59,2.11,.89,4.3,.89,6.57s-.3,4.46-.89,6.54c-.59,2.08-1.42,4.04-2.48,5.87s-2.35,3.49-3.85,4.98c-1.5,1.49-3.17,2.77-4.99,3.83-1.83,1.06-3.79,1.89-5.88,2.47-2.1,.58-4.28,.87-6.56,.87s-4.46-.29-6.56-.87c-2.1-.58-4.06-1.41-5.88-2.48s-3.49-2.36-4.98-3.85c-1.49-1.49-2.77-3.15-3.83-4.96-1.06-1.81-1.89-3.77-2.47-5.87-.58-2.09-.87-4.28-.87-6.56Zm9.31-.06c0,2.17,.39,4.2,1.18,6.09,.78,1.89,1.86,3.53,3.22,4.93,1.36,1.4,2.98,2.5,4.83,3.32,1.86,.82,3.87,1.22,6.04,1.22s4.15-.41,6.01-1.22c1.86-.82,3.47-1.92,4.85-3.32s2.45-3.04,3.24-4.93c.78-1.89,1.18-3.92,1.18-6.09s-.39-4.17-1.18-6.06c-.78-1.89-1.86-3.54-3.24-4.95-1.37-1.41-2.99-2.52-4.85-3.34-1.86-.82-3.86-1.22-6.01-1.22s-4.18,.41-6.04,1.22c-1.86,.82-3.47,1.93-4.83,3.34-1.36,1.41-2.44,3.06-3.22,4.95-.78,1.89-1.18,3.91-1.18,6.06Z"/><path class="cls-1" d="M1229.63,491.75c0-1.01,.47-1.51,1.42-1.51h19.72c2.17,0,4.2,.41,6.09,1.22,1.89,.82,3.54,1.92,4.95,3.32,1.41,1.4,2.51,3.04,3.32,4.93,.81,1.89,1.21,3.9,1.21,6.03,0,1.48-.2,2.9-.61,4.25-.41,1.35-.98,2.61-1.71,3.77s-1.6,2.21-2.61,3.14c-1.01,.93-2.13,1.72-3.35,2.37l8.38,16.53c.04,.21,.12,.43,.23,.64s.16,.44,.16,.68c0,.64-.38,.97-1.13,.97h-7.48c-.77,0-1.29-.4-1.55-1.19l-7.8-15.47c-.34,0-.71,0-1.11,.02-.4,.01-.95,.02-1.64,.02h-7.11v15.24c0,.92-.49,1.39-1.48,1.39h-6.48c-.43,0-.77-.11-1.03-.34-.26-.23-.39-.57-.39-1.05v-44.95Zm27.17,14.03c0-.92-.17-1.82-.52-2.68-.34-.87-.83-1.65-1.45-2.33-.62-.69-1.36-1.24-2.22-1.67-.86-.43-1.79-.68-2.8-.74-.75-.02-1.49-.04-2.21-.05-.72-.01-1.47-.02-2.24-.02h-6.35v14.95h9.72c.38,0,.78-.02,1.21-.06,1.01-.06,1.94-.3,2.79-.71,.85-.41,1.57-.95,2.18-1.62,.6-.68,1.07-1.45,1.4-2.31,.33-.87,.5-1.79,.5-2.75Z"/><path class="cls-1" d="M1280.94,491.65c0-.39,.12-.72,.35-1,.24-.28,.59-.42,1.06-.42h6.39c.36,0,.71,.13,1.03,.39,.32,.26,.48,.6,.48,1.03v45.02c0,.95-.5,1.42-1.51,1.42h-6.39c-.94,0-1.41-.47-1.41-1.42v-45.02Z"/><path class="cls-1" d="M1307.17,491.78c0-1.03,.47-1.55,1.42-1.55h31.07c.56,0,.95,.16,1.19,.47,.24,.31,.35,.71,.35,1.18v5.69c0,.39-.13,.73-.4,1.03-.27,.3-.67,.45-1.21,.45h-22.91v9.76h17.66c.43-.04,.77,.05,1.03,.27,.26,.23,.39,.61,.39,1.14v5.83c0,.39-.11,.73-.32,1.03-.21,.3-.56,.45-1.03,.45h-17.72v11.7h23.75c.6,0,1,.13,1.19,.39s.29,.66,.29,1.2v5.89c0,.91-.47,1.36-1.42,1.36h-31.9c-.39,0-.72-.11-1-.32s-.42-.56-.42-1.03v-44.95Z"/><path class="cls-1" d="M1383.28,503c-.28,0-.54-.07-.77-.21-.24-.14-.5-.33-.8-.56l-.06-.03c-.41-.41-.93-.86-1.58-1.35-.64-.49-1.36-.96-2.16-1.39s-1.65-.79-2.56-1.09c-.91-.3-1.84-.45-2.79-.45-1.2,0-2.27,.13-3.19,.4-.92,.27-1.7,.63-2.32,1.1-.62,.46-1.1,1-1.42,1.63s-.48,1.29-.48,2c0,.77,.24,1.45,.72,2.03,.48,.58,1.14,1.1,1.97,1.55,.83,.45,1.78,.86,2.85,1.24,1.07,.38,2.2,.75,3.38,1.11,1.35,.41,2.7,.85,4.03,1.32s2.61,1,3.82,1.59c1.21,.59,2.35,1.25,3.4,1.97,1.05,.72,1.96,1.55,2.72,2.48s1.36,1.98,1.8,3.13c.44,1.15,.66,2.45,.66,3.88,0,2.34-.47,4.46-1.42,6.35-.95,1.89-2.25,3.51-3.92,4.85-1.66,1.34-3.62,2.38-5.86,3.09-2.25,.72-4.66,1.08-7.23,1.08-1.65,0-3.3-.19-4.93-.58-1.63-.39-3.2-.93-4.7-1.64-1.5-.71-2.93-1.56-4.27-2.56s-2.54-2.12-3.59-3.37v.03l-.06-.13c-.47-.54-.71-1.03-.71-1.48,0-.24,.06-.46,.19-.68,.13-.21,.32-.45,.58-.71l1.06-1.06c.32-.28,.67-.59,1.03-.93,.36-.34,.73-.65,1.1-.93,.36-.28,.7-.51,1.01-.71s.56-.29,.76-.29c.3,0,.58,.1,.84,.29s.47,.38,.64,.55l.13,.13h-.03c.75,.71,1.59,1.39,2.53,2.03s1.9,1.22,2.89,1.72c.99,.5,1.97,.9,2.95,1.19,.98,.29,1.9,.44,2.76,.44,1.18,0,2.29-.15,3.32-.45s1.92-.72,2.68-1.27c.75-.55,1.34-1.21,1.77-1.98,.43-.77,.64-1.63,.64-2.58s-.28-1.76-.84-2.43c-.56-.68-1.29-1.27-2.19-1.77-.9-.5-1.92-.94-3.05-1.3-1.13-.37-2.26-.71-3.4-1.03-2.62-.79-4.91-1.65-6.88-2.58-1.97-.92-3.6-1.96-4.91-3.11-1.31-1.15-2.29-2.44-2.95-3.87-.65-1.43-.98-3.03-.98-4.82,0-2,.4-3.82,1.21-5.46,.8-1.64,1.95-3.05,3.43-4.22s3.27-2.08,5.35-2.74,4.41-.98,6.99-.98c1.95,0,3.94,.31,5.96,.92,2.02,.61,3.89,1.46,5.61,2.53,.52,.32,1.04,.69,1.58,1.09,.54,.41,1.03,.82,1.48,1.24,.45,.42,.82,.83,1.11,1.22,.29,.4,.43,.74,.43,1.02,0,.26-.06,.52-.19,.79-.13,.27-.29,.51-.48,.73l-.97,1.03v-.03c-.32,.34-.66,.7-1,1.06s-.69,.69-1.03,.98-.65,.53-.93,.72-.51,.29-.71,.29Z"/></g></svg>