<svg width="24" height="30" viewBox="0 0 24 30" fill="none" xmlns="http://www.w3.org/2000/svg">
<g id="Group">
<path id="Vector (Stroke)" fill-rule="evenodd" clip-rule="evenodd" d="M11.9999 2.72727C10.0507 2.72727 8.4705 4.25357 8.4705 6.13636V15C8.4705 16.8828 10.0507 18.4091 11.9999 18.4091C13.9492 18.4091 15.5293 16.8828 15.5293 15V6.13636C15.5293 4.25357 13.9492 2.72727 11.9999 2.72727ZM5.64697 6.13636C5.64697 2.74734 8.49128 0 11.9999 0C15.5085 0 18.3529 2.74734 18.3529 6.13636V15C18.3529 18.389 15.5085 21.1364 11.9999 21.1364C8.49128 21.1364 5.64697 18.389 5.64697 15V6.13636Z" fill="#0B0033"/>
<path id="Vector (Stroke)_2" fill-rule="evenodd" clip-rule="evenodd" d="M1.41176 12.9545C2.19146 12.9545 2.82353 13.565 2.82353 14.3182C2.82353 19.2132 6.93217 23.1818 12 23.1818C17.0678 23.1818 21.1765 19.2132 21.1765 14.3182C21.1765 13.565 21.8085 12.9545 22.5882 12.9545C23.3679 12.9545 24 13.565 24 14.3182C24 20.2581 19.3737 25.1548 13.4118 25.8297V28.6363C13.4118 29.3895 12.7797 30 12 30C11.2203 30 10.5882 29.3895 10.5882 28.6363V25.8297C4.62626 25.1548 0 20.2581 0 14.3182C0 13.565 0.632069 12.9545 1.41176 12.9545Z" fill="#0B0033"/>
</g>
</svg>
