<svg width="22" height="23" viewBox="0 0 22 23" fill="none" xmlns="http://www.w3.org/2000/svg">
<g id="24 / Newproject">
<path id="Union" d="M22.0002 5.44851H17.0517V0.5H14.5774V5.44851H9.62891V7.92276H14.5774V12.8713H17.0517V7.92276H22.0002V5.44851Z" fill="white"/>
<path id="Vector" d="M5.58333 4C4.43333 4 3.5 4.93333 3.5 6.08333V16.9167C3.5 18.0667 4.43333 19 5.58333 19H16.4167C17.5667 19 18.5 18.0667 18.5 16.9167V14.4167C18.5 14.0851 18.6317 13.7672 18.8661 13.5328C19.1005 13.2984 19.4185 13.1667 19.75 13.1667C20.0815 13.1667 20.3995 13.2984 20.6339 13.5328C20.8683 13.7672 21 14.0851 21 14.4167V16.9167C21 18.1322 20.5171 19.298 19.6576 20.1576C18.798 21.0171 17.6322 21.5 16.4167 21.5H5.58333C4.36776 21.5 3.20197 21.0171 2.34243 20.1576C1.48289 19.298 1 18.1322 1 16.9167V6.08333C1 4.86776 1.48289 3.70197 2.34243 2.84243C3.20197 1.98289 4.36776 1.5 5.58333 1.5H8.08333C8.41485 1.5 8.7328 1.6317 8.96722 1.86612C9.20164 2.10054 9.33333 2.41848 9.33333 2.75C9.33333 3.08152 9.20164 3.39946 8.96722 3.63388C8.7328 3.8683 8.41485 4 8.08333 4H5.58333Z" fill="white"/>
</g>
</svg>
