<svg width="80" height="80" viewBox="0 0 80 80" fill="none" xmlns="http://www.w3.org/2000/svg">
<g id="ph:read-cv-logo">
<path id="Vector" d="M65.8687 12.2656L25.1656 5.07813C23.8599 4.84835 22.5163 5.14658 21.4304 5.90724C20.3445 6.6679 19.6052 7.8287 19.375 9.13438L10.0781 61.9469C9.96439 62.5939 9.97929 63.2569 10.1219 63.8982C10.2646 64.5394 10.5322 65.1462 10.9095 65.684C11.2868 66.2217 11.7663 66.6799 12.3207 67.0322C12.8751 67.3846 13.4935 67.6242 14.1406 67.7375L54.8437 74.925C55.4909 75.0392 56.1543 75.0246 56.7959 74.8822C57.4375 74.7397 58.0447 74.4722 58.5828 74.0949C59.1209 73.7176 59.5794 73.2379 59.9319 72.6832C60.2845 72.1286 60.5242 71.5099 60.6375 70.8625L69.9343 18.05C70.1621 16.7438 69.8617 15.4007 69.0993 14.3159C68.3369 13.2312 67.1748 12.4937 65.8687 12.2656ZM55.7062 70L15 62.8125L24.2969 10L65 17.1875L55.7062 70ZM27.9187 18.2563C28.0345 17.6037 28.4047 17.0238 28.948 16.644C29.4912 16.2643 30.1629 16.1158 30.8156 16.2313L56.7531 20.8094C57.3695 20.9174 57.923 21.2526 58.3043 21.7489C58.6855 22.2452 58.8668 22.8664 58.8122 23.4899C58.7576 24.1133 58.4712 24.6936 58.0096 25.1161C57.5479 25.5386 56.9445 25.7726 56.3187 25.7719C56.1721 25.7717 56.0258 25.7591 55.8812 25.7344L29.9437 21.1531C29.2911 21.0373 28.7112 20.6671 28.3315 20.1239C27.9518 19.5807 27.8033 18.9089 27.9187 18.2563ZM26.1875 28.1063C26.2445 27.7828 26.3646 27.4738 26.541 27.1969C26.7175 26.9199 26.9467 26.6804 27.2158 26.4921C27.4848 26.3037 27.7883 26.1702 28.1089 26.0992C28.4295 26.0282 28.761 26.021 29.0844 26.0781L55.0219 30.6594C55.6426 30.7632 56.2014 31.0973 56.5866 31.5951C56.9718 32.0929 57.155 32.7176 57.0998 33.3445C57.0446 33.9715 56.7549 34.5546 56.2886 34.9773C55.8223 35.4 55.2137 35.6313 54.5844 35.625C54.4365 35.6253 54.289 35.6117 54.1437 35.5844L28.2062 31.0063C27.5541 30.889 26.9753 30.5178 26.5967 29.974C26.2182 29.4302 26.071 28.7585 26.1875 28.1063ZM24.4531 37.9531C24.5711 37.3023 24.9422 36.7247 25.4852 36.3469C26.0281 35.9691 26.6987 35.8219 27.35 35.9375L40.3125 38.2156C40.9286 38.3236 41.482 38.6586 41.8632 39.1545C42.2444 39.6505 42.4259 40.2714 42.3717 40.8946C42.3175 41.5178 42.0317 42.098 41.5707 42.5208C41.1096 42.9435 40.5068 43.1781 39.8812 43.1781C39.7346 43.1781 39.5882 43.1655 39.4437 43.1406L26.475 40.85C25.823 40.7335 25.2438 40.363 24.8648 39.8198C24.4857 39.2767 24.3376 38.6053 24.4531 37.9531Z" fill="white"/>
</g>
</svg>
