<svg width="80" height="80" viewBox="0 0 80 80" fill="none" xmlns="http://www.w3.org/2000/svg">
<g id="ph:video">
<path id="Vector" d="M51.3875 32.9187L36.3875 22.9187C36.0109 22.6675 35.5732 22.5232 35.121 22.5013C34.6688 22.4794 34.2192 22.5807 33.82 22.7944C33.4209 23.008 33.0873 23.3261 32.8548 23.7145C32.6223 24.103 32.4997 24.5473 32.5 25V45C32.4997 45.4527 32.6223 45.897 32.8548 46.2855C33.0873 46.6739 33.4209 46.992 33.82 47.2056C34.2192 47.4193 34.6688 47.5206 35.121 47.4987C35.5732 47.4768 36.0109 47.3325 36.3875 47.0813L51.3875 37.0813C51.7304 36.853 52.0116 36.5436 52.2061 36.1805C52.4007 35.8174 52.5024 35.4119 52.5024 35C52.5024 34.5881 52.4007 34.1826 52.2061 33.8195C52.0116 33.4564 51.7304 33.147 51.3875 32.9187ZM37.5 40.3281V29.6875L45.4938 35L37.5 40.3281ZM67.5 12.5H12.5C11.1739 12.5 9.90215 13.0268 8.96447 13.9645C8.02678 14.9021 7.5 16.1739 7.5 17.5V52.5C7.5 53.8261 8.02678 55.0979 8.96447 56.0355C9.90215 56.9732 11.1739 57.5 12.5 57.5H67.5C68.8261 57.5 70.0979 56.9732 71.0355 56.0355C71.9732 55.0979 72.5 53.8261 72.5 52.5V17.5C72.5 16.1739 71.9732 14.9021 71.0355 13.9645C70.0979 13.0268 68.8261 12.5 67.5 12.5ZM67.5 52.5H12.5V17.5H67.5V52.5ZM72.5 65C72.5 65.663 72.2366 66.2989 71.7678 66.7678C71.2989 67.2366 70.663 67.5 70 67.5H10C9.33696 67.5 8.70107 67.2366 8.23223 66.7678C7.76339 66.2989 7.5 65.663 7.5 65C7.5 64.337 7.76339 63.7011 8.23223 63.2322C8.70107 62.7634 9.33696 62.5 10 62.5H70C70.663 62.5 71.2989 62.7634 71.7678 63.2322C72.2366 63.7011 72.5 64.337 72.5 65Z" fill="#0B0033"/>
</g>
</svg>
