<svg width="21" height="22" viewBox="0 0 21 22" fill="none" xmlns="http://www.w3.org/2000/svg">
<g id="Group">
<path id="Vector" d="M19.5 15.09V10.098C19.5 5.808 19.5 3.665 18.182 2.332C16.864 1 14.742 1 10.5 1C6.257 1 4.136 1 2.818 2.332C1.5 3.665 1.5 5.81 1.5 10.098V15.091C1.5 18.187 1.5 19.736 2.234 20.412C2.584 20.735 3.026 20.938 3.497 20.992C4.484 21.105 5.637 20.085 7.942 18.046C8.962 17.145 9.471 16.694 10.06 16.576C10.35 16.516 10.65 16.516 10.94 16.576C11.53 16.694 12.039 17.145 13.058 18.046C15.363 20.085 16.516 21.105 17.503 20.991C17.973 20.938 18.416 20.735 18.766 20.412C19.5 19.736 19.5 18.187 19.5 15.09Z" stroke="#0B0033" stroke-width="2"/>
<path id="Vector_2" d="M13.5 5H7.5" stroke="#0B0033" stroke-width="2" stroke-linecap="round"/>
</g>
</svg>
