<svg width="64" height="54" viewBox="0 0 64 54" fill="none" xmlns="http://www.w3.org/2000/svg">
<path id="Vector" d="M43.2123 20.0475L28.4431 10.2293C28.0723 9.98263 27.6413 9.84097 27.196 9.81946C26.7508 9.79795 26.3081 9.8974 25.9151 10.1072C25.5221 10.317 25.1937 10.6292 24.9648 11.0106C24.7358 11.392 24.6151 11.8282 24.6154 12.2727V31.9091C24.6151 32.3536 24.7358 32.7898 24.9648 33.1712C25.1937 33.5526 25.5221 33.8648 25.9151 34.0746C26.3081 34.2844 26.7508 34.3839 27.196 34.3624C27.6413 34.3408 28.0723 34.1992 28.4431 33.9525L43.2123 24.1343C43.55 23.9103 43.8268 23.6065 44.0184 23.25C44.2099 22.8935 44.3101 22.4953 44.3101 22.0909C44.3101 21.6865 44.2099 21.2883 44.0184 20.9318C43.8268 20.5753 43.55 20.2716 43.2123 20.0475ZM29.5385 27.3222V16.875L37.4092 22.0909L29.5385 27.3222ZM59.0769 0H4.92308C3.6174 0 2.36519 0.517206 1.44194 1.43784C0.51868 2.35847 0 3.60712 0 4.90909V39.2727C0 40.5747 0.51868 41.8233 1.44194 42.744C2.36519 43.6646 3.6174 44.1818 4.92308 44.1818H59.0769C60.3826 44.1818 61.6348 43.6646 62.5581 42.744C63.4813 41.8233 64 40.5747 64 39.2727V4.90909C64 3.60712 63.4813 2.35847 62.5581 1.43784C61.6348 0.517206 60.3826 0 59.0769 0ZM59.0769 39.2727H4.92308V4.90909H59.0769V39.2727ZM64 51.5455C64 52.1964 63.7407 52.8208 63.279 53.2811C62.8174 53.7414 62.1913 54 61.5385 54H2.46154C1.8087 54 1.1826 53.7414 0.720968 53.2811C0.25934 52.8208 0 52.1964 0 51.5455C0 50.8945 0.25934 50.2701 0.720968 49.8098C1.1826 49.3495 1.8087 49.0909 2.46154 49.0909H61.5385C62.1913 49.0909 62.8174 49.3495 63.279 49.8098C63.7407 50.2701 64 50.8945 64 51.5455Z" fill="white"/>
</svg>
