<svg width="26" height="20" viewBox="0 0 26 20" fill="none" xmlns="http://www.w3.org/2000/svg">
<g id="&#240;&#159;&#166;&#134; icon &#34;group&#34;">
<path id="Union" fill-rule="evenodd" clip-rule="evenodd" d="M19.7838 0C17.5447 0 15.7297 1.81508 15.7297 4.05405C15.7297 5.26434 16.2601 6.35077 17.1011 7.09359C15.4427 7.8882 14.1915 9.39659 13.7453 11.2208C13.2244 10.8592 12.6606 10.5552 12.063 10.3179C13.3052 9.38067 14.1081 7.89219 14.1081 6.21621C14.1081 3.38015 11.809 1.08108 8.97298 1.08108C6.13692 1.08108 3.83784 3.38016 3.83784 6.21621C3.83784 7.8922 4.64077 9.38068 5.88295 10.318C2.78501 11.5478 0.594604 14.5722 0.594604 18.1081V19.1892C0.594604 19.637 0.957617 20 1.40542 20C1.85321 20 2.21623 19.637 2.21623 19.1892V18.1081C2.21623 14.3789 5.23726 11.3554 8.96544 11.3513L8.97298 11.3513L8.97713 11.3513C12.7069 11.3536 15.7297 14.3778 15.7297 18.1081V19.1892C15.7297 19.637 16.0928 20 16.5406 20C16.9883 20 17.3514 19.637 17.3514 19.1892V18.1081C17.3514 15.9492 16.5348 13.9811 15.1938 12.4956C15.302 10.056 17.3127 8.11094 19.7784 8.1081C19.7802 8.1081 19.782 8.10811 19.7838 8.10811C19.7856 8.10811 19.7874 8.1081 19.7892 8.1081C22.3242 8.11102 24.3784 10.167 24.3784 12.7027V13.2432C24.3784 13.691 24.7414 14.054 25.1892 14.054C25.637 14.054 26 13.691 26 13.2432V12.7027C26 10.2303 24.5566 8.09505 22.4665 7.09359C23.3075 6.35076 23.8378 5.26434 23.8378 4.05405C23.8378 1.81508 22.0228 0 19.7838 0ZM19.7887 6.48648C21.1299 6.48384 22.2162 5.39582 22.2162 4.05405C22.2162 2.71065 21.1272 1.62162 19.7838 1.62162C18.4404 1.62162 17.3514 2.71065 17.3514 4.05405C17.3514 5.39745 18.4404 6.48649 19.7838 6.48649C19.7854 6.48649 19.7871 6.48648 19.7887 6.48648ZM12.4865 6.21621C12.4865 8.15431 10.9171 9.72597 8.97993 9.72972L8.97298 9.72972L8.96603 9.72972C7.02877 9.72597 5.45947 8.15432 5.45947 6.21621C5.45947 4.27575 7.03252 2.7027 8.97298 2.7027C10.9134 2.7027 12.4865 4.27576 12.4865 6.21621Z" fill="#6100FF"/>
</g>
</svg>
