<svg width="21" height="26" viewBox="0 0 21 26" fill="none" xmlns="http://www.w3.org/2000/svg">
<g id="&#240;&#159;&#166;&#134; icon &#34;doc star alt&#34;">
<path id="Vector (Stroke)" fill-rule="evenodd" clip-rule="evenodd" d="M2.06975 2.24419V23.7558H18.9302V5.80305L15.3713 2.24419H2.06975ZM15.3202 2.19311L15.3203 2.19323C15.3203 2.19319 15.3202 2.19315 15.3202 2.19311ZM0.325562 2.06977C0.325562 1.20281 1.02837 0.5 1.89533 0.5H15.4436C15.8599 0.5 16.2592 0.665395 16.5536 0.959861L20.2147 4.62084L20.2148 4.62093C20.5091 4.91533 20.6744 5.31458 20.6744 5.73085V23.9302C20.6744 24.7972 19.9716 25.5 19.1046 25.5H1.89533C1.0284 25.5 0.325562 24.7973 0.325562 23.9302V2.06977Z" fill="white"/>
<path id="Vector (Stroke)_2" fill-rule="evenodd" clip-rule="evenodd" d="M11.6678 8.22338C11.1983 7.22779 9.80162 7.22779 9.33216 8.22338C9.33213 8.22345 9.33219 8.2233 9.33216 8.22338L8.32192 10.3652L6.07907 10.7083C6.07905 10.7083 6.07908 10.7083 6.07907 10.7083C4.9765 10.877 4.64401 12.2114 5.3544 12.9359L6.99963 14.613L6.60981 16.9918C6.44805 17.9789 7.47623 18.9291 8.5044 18.3633L10.5 17.2649L12.4955 18.3633C13.5235 18.9289 14.552 17.9792 14.3901 16.9918C14.3901 16.9918 14.3901 16.9919 14.3901 16.9918L14.0003 14.613L15.6454 12.936C16.3557 12.2116 16.0236 10.877 14.921 10.7083C14.9209 10.7083 14.921 10.7083 14.921 10.7083L12.678 10.3652L11.6678 8.22338C11.6678 8.22345 11.6678 8.2233 11.6678 8.22338ZM10.5 9.83602L11.2986 11.5291C11.4223 11.7915 11.6686 11.9752 11.9554 12.0191L13.8215 12.3046L12.4457 13.7071C12.2511 13.9055 12.1627 14.1847 12.2076 14.4589L12.5237 16.3879L10.9205 15.5055C10.6587 15.3614 10.3413 15.3614 10.0795 15.5055L8.47623 16.3879L8.79234 14.4589C8.83728 14.1847 8.74886 13.9055 8.55428 13.7071L7.17845 12.3046L9.04456 12.0191C9.3314 11.9752 9.57762 11.7915 9.70141 11.5291L10.5 9.83602Z" fill="white"/>
<path id="Vector (Stroke)_3" fill-rule="evenodd" clip-rule="evenodd" d="M15.1511 0.5C15.6328 0.5 16.0232 0.890449 16.0232 1.37209V5.15116H19.8023C20.284 5.15116 20.6744 5.54161 20.6744 6.02326C20.6744 6.5049 20.284 6.89535 19.8023 6.89535H15.8488C14.9818 6.89535 14.2791 6.19251 14.2791 5.32558V1.37209C14.2791 0.890449 14.6695 0.5 15.1511 0.5Z" fill="white"/>
</g>
</svg>
