<svg width="80" height="80" viewBox="0 0 80 80" fill="none" xmlns="http://www.w3.org/2000/svg">
<g id="ph:read-cv-logo">
<path id="Vector" d="M65.8688 12.2656L25.1657 5.07813C23.8599 4.84835 22.5164 5.14658 21.4305 5.90724C20.3446 6.6679 19.6052 7.8287 19.375 9.13438L10.0782 61.9469C9.96445 62.5939 9.97935 63.2569 10.122 63.8982C10.2647 64.5394 10.5323 65.1462 10.9095 65.684C11.2868 66.2217 11.7664 66.6799 12.3208 67.0322C12.8752 67.3846 13.4936 67.6242 14.1407 67.7375L54.8438 74.925C55.491 75.0392 56.1544 75.0246 56.796 74.8822C57.4376 74.7397 58.0448 74.4722 58.5829 74.0949C59.121 73.7176 59.5794 73.2379 59.932 72.6832C60.2845 72.1286 60.5243 71.5099 60.6375 70.8625L69.9344 18.05C70.1622 16.7438 69.8618 15.4007 69.0994 14.3159C68.337 13.2312 67.1749 12.4937 65.8688 12.2656ZM55.7063 70L15 62.8125L24.2969 10L65 17.1875L55.7063 70ZM27.9188 18.2563C28.0346 17.6037 28.4048 17.0238 28.948 16.644C29.4912 16.2643 30.163 16.1158 30.8157 16.2313L56.7532 20.8094C57.3696 20.9174 57.9231 21.2526 58.3044 21.7489C58.6856 22.2452 58.8668 22.8664 58.8123 23.4899C58.7577 24.1133 58.4713 24.6936 58.0096 25.1161C57.548 25.5386 56.9446 25.7726 56.3188 25.7719C56.1722 25.7717 56.0258 25.7591 55.8813 25.7344L29.9438 21.1531C29.2912 21.0373 28.7113 20.6671 28.3316 20.1239C27.9519 19.5807 27.8034 18.9089 27.9188 18.2563ZM26.1875 28.1063C26.2445 27.7828 26.3647 27.4738 26.5411 27.1969C26.7175 26.9199 26.9468 26.6804 27.2158 26.4921C27.4848 26.3037 27.7883 26.1702 28.1089 26.0992C28.4296 26.0282 28.761 26.021 29.0844 26.0781L55.0219 30.6594C55.6427 30.7632 56.2014 31.0973 56.5866 31.5951C56.9718 32.0929 57.1551 32.7176 57.0999 33.3445C57.0446 33.9715 56.7549 34.5546 56.2887 34.9773C55.8224 35.4 55.2138 35.6313 54.5844 35.625C54.4366 35.6253 54.2891 35.6117 54.1438 35.5844L28.2063 31.0063C27.5542 30.889 26.9753 30.5178 26.5968 29.974C26.2183 29.4302 26.0711 28.7585 26.1875 28.1063ZM24.4532 37.9531C24.5711 37.3023 24.9423 36.7247 25.4852 36.3469C26.0282 35.9691 26.6987 35.8219 27.35 35.9375L40.3125 38.2156C40.9287 38.3236 41.482 38.6586 41.8632 39.1545C42.2445 39.6505 42.4259 40.2714 42.3718 40.8946C42.3176 41.5178 42.0318 42.098 41.5707 42.5208C41.1096 42.9435 40.5068 43.1781 39.8813 43.1781C39.7347 43.1781 39.5883 43.1655 39.4438 43.1406L26.475 40.85C25.823 40.7335 25.2439 40.363 24.8648 39.8198C24.4857 39.2767 24.3377 38.6053 24.4532 37.9531Z" fill="white"/>
</g>
</svg>
