<svg width="22" height="14" viewBox="0 0 22 14" fill="none" xmlns="http://www.w3.org/2000/svg">
<path fill-rule="evenodd" clip-rule="evenodd" d="M4.43614 10.7206C4.19519 10.686 3.93905 10.6666 3.66667 10.6666C1.66048 10.6666 0.540047 11.7252 0.110523 12.2527C0.0408564 12.3433 0.00366865 12.4544 0.00366865 12.5691C0.00366865 12.5722 0.00366494 12.5754 0.00314113 12.578C-1.72645e-06 12.7718 0 13.0285 0 13.2857C0 13.5748 0.234667 13.8095 0.52381 13.8095H4.28057C4.22138 13.6429 4.19048 13.4659 4.19048 13.2857C4.19048 12.6896 4.19048 11.9793 4.19257 11.5597C4.19257 11.2611 4.27795 10.9704 4.43614 10.7206ZM16.2381 13.8095H5.76191C5.6231 13.8095 5.48952 13.7545 5.39157 13.656C5.2931 13.5581 5.2381 13.4245 5.2381 13.2857C5.2381 12.6911 5.23809 11.984 5.24019 11.5629C5.24019 11.5618 5.24019 11.5608 5.24019 11.5597C5.24019 11.4392 5.2821 11.323 5.35805 11.2297C6.0081 10.4875 7.97238 8.57138 11 8.57138C14.4268 8.57138 16.1475 10.4838 16.6739 11.2051C16.732 11.2936 16.7619 11.3937 16.7619 11.4958V13.2857C16.7619 13.4245 16.7069 13.5581 16.6084 13.656C16.5105 13.7545 16.3769 13.8095 16.2381 13.8095ZM17.7194 13.8095H21.4762C21.7653 13.8095 22 13.5748 22 13.2857V12.5686C22 12.4528 21.9618 12.3407 21.8916 12.2491C21.46 11.7252 20.339 10.6666 18.3333 10.6666C18.0751 10.6666 17.8315 10.6839 17.6021 10.7153C17.7378 10.9526 17.8095 11.2219 17.8095 11.4969V13.2857C17.8095 13.4659 17.7786 13.6429 17.7194 13.8095ZM3.66667 4.38091C2.22095 4.38091 1.04762 5.55424 1.04762 6.99996C1.04762 8.44567 2.22095 9.619 3.66667 9.619C5.11238 9.619 6.28571 8.44567 6.28571 6.99996C6.28571 5.55424 5.11238 4.38091 3.66667 4.38091ZM18.3333 4.38091C16.8876 4.38091 15.7143 5.55424 15.7143 6.99996C15.7143 8.44567 16.8876 9.619 18.3333 9.619C19.779 9.619 20.9524 8.44567 20.9524 6.99996C20.9524 5.55424 19.779 4.38091 18.3333 4.38091ZM11 0.19043C8.97652 0.19043 7.33333 1.83362 7.33333 3.8571C7.33333 5.88057 8.97652 7.52377 11 7.52377C13.0235 7.52377 14.6667 5.88057 14.6667 3.8571C14.6667 1.83362 13.0235 0.19043 11 0.19043Z" fill="#0B0033" fill-opacity="0.3"/>
</svg>
