<svg width="20" height="20" viewBox="0 0 20 20" fill="none" xmlns="http://www.w3.org/2000/svg">
<path d="M4.58333 2.5C3.43333 2.5 2.5 3.43333 2.5 4.58333V15.4167C2.5 16.5667 3.43333 17.5 4.58333 17.5H15.4167C16.5667 17.5 17.5 16.5667 17.5 15.4167V12.9167C17.5 12.5851 17.6317 12.2672 17.8661 12.0328C18.1005 11.7984 18.4185 11.6667 18.75 11.6667C19.0815 11.6667 19.3995 11.7984 19.6339 12.0328C19.8683 12.2672 20 12.5851 20 12.9167V15.4167C20 16.6322 19.5171 17.798 18.6576 18.6576C17.798 19.5171 16.6322 20 15.4167 20H4.58333C3.36775 20 2.20197 19.5171 1.34242 18.6576C0.482883 17.798 -1.90735e-06 16.6322 -1.90735e-06 15.4167V4.58333C-1.90735e-06 3.36776 0.482883 2.20197 1.34242 1.34243C2.20197 0.482886 3.36775 0 4.58333 0H7.08333C7.41485 6.98627e-09 7.7328 0.131696 7.96722 0.366117C8.20164 0.600537 8.33333 0.918479 8.33333 1.25C8.33333 1.58152 8.20164 1.89946 7.96722 2.13388C7.7328 2.3683 7.41485 2.5 7.08333 2.5H4.58333Z" fill="white"/>
<path d="M16.7555 4.19196L13.6319 2.31245L8.54627 10.0738L11.6679 11.9515L16.7555 4.19196ZM8.06993 12.4604L8.00096 14.2238L9.62979 13.398L11.1445 12.6321L8.13246 10.8187L8.06993 12.4604ZM17.589 1.33657L15.9563 0.35265C15.7588 0.233938 15.5202 0.195229 15.293 0.245033C15.0657 0.294837 14.8684 0.429077 14.7445 0.618238L14.0999 1.59907L17.2215 3.47796L17.8661 2.49836C18.1239 2.10307 18.0015 1.58239 17.589 1.33533V1.33657Z" fill="white"/>
</svg>
