<svg width="82" height="82" viewBox="0 0 82 82" fill="none" xmlns="http://www.w3.org/2000/svg">
<path fill-rule="evenodd" clip-rule="evenodd" d="M81.5 72.5V50H72.5V72.5H9.5V9.5H32V0.5H9.5C7.11305 0.5 4.82387 1.44821 3.13604 3.13604C1.44821 4.82387 0.5 7.11305 0.5 9.5V72.5C0.5 74.8869 1.44821 77.1761 3.13604 78.864C4.82387 80.5518 7.11305 81.5 9.5 81.5H72.5C74.8869 81.5 77.1761 80.5518 78.864 78.864C80.5518 77.1761 81.5 74.8869 81.5 72.5ZM63.5 18.5H81.5V27.5H63.5V45.5H54.5V27.5H36.5V18.5H54.5V0.5H63.5V18.5Z" fill="white"/>
</svg>
