<svg width="20" height="20" viewBox="0 0 20 20" fill="none" xmlns="http://www.w3.org/2000/svg">
<path d="M18.9724 10.7144C18.8358 12.432 18.2089 14.0743 17.1663 15.4462C16.1237 16.818 14.7092 17.8618 13.0909 18.4534C11.4726 19.045 9.71843 19.1596 8.03687 18.7837C6.35532 18.4077 4.81704 17.5569 3.60478 16.3324C2.39252 15.1079 1.55725 13.5611 1.19819 11.8759C0.83913 10.1906 0.971382 8.43775 1.57923 6.82545C2.18708 5.21316 3.24498 3.80924 4.62724 2.78048C6.0095 1.75173 7.65803 1.14139 9.37695 1.02197" stroke="#0B0033" stroke-width="2" stroke-linecap="round" stroke-linejoin="round"/>
<path d="M13.8632 11.5093C13.6132 12.1529 13.2067 12.724 12.6804 13.171C12.1542 13.618 11.5249 13.9267 10.8493 14.0693C10.1738 14.2119 9.47333 14.1839 8.81133 13.9878C8.14934 13.7917 7.54667 13.4336 7.05783 12.946C6.56899 12.4585 6.2094 11.8567 6.01157 11.1952C5.81374 10.5337 5.78391 9.83337 5.92479 9.15746C6.06567 8.48155 6.3728 7.85141 6.81842 7.32404C7.26404 6.79666 7.83408 6.38867 8.47701 6.13698M10.0001 10.0001L13.4617 6.53852M13.4617 6.53852L16.2309 7.23084L19.0002 4.46158L16.2309 3.76926L15.5386 1L12.7694 3.76926L13.4617 6.53852Z" stroke="#0B0033" stroke-width="2" stroke-linecap="round" stroke-linejoin="round"/>
</svg>
