<svg width="60" height="64" viewBox="0 0 60 64" fill="none" xmlns="http://www.w3.org/2000/svg">
<path id="Vector" d="M55.8605 6.64076L15.1614 0.0692001C13.8558 -0.140888 12.5124 0.131786 11.4266 0.827259C10.3408 1.52273 9.60157 2.58406 9.3714 3.77785L0.0754701 52.0645C-0.038228 52.6561 -0.0233331 53.2623 0.119304 53.8486C0.26194 54.4349 0.529523 54.9897 0.90676 55.4814C1.284 55.9731 1.7635 56.392 2.31785 56.7141C2.87221 57.0363 3.49055 57.2554 4.13756 57.3589L44.8366 63.9305C45.4837 64.0349 46.147 64.0216 46.7886 63.8913C47.4301 63.7611 48.0372 63.5165 48.5753 63.1715C49.1133 62.8265 49.5717 62.388 49.9243 61.8808C50.2768 61.3737 50.5165 60.808 50.6297 60.2161L59.9257 11.9294C60.1534 10.7352 59.8531 9.50715 59.0907 8.51537C58.3284 7.52358 57.1664 6.84928 55.8605 6.64076ZM45.699 59.4276L4.99685 52.856L14.2928 4.56929L54.9918 11.1409L45.699 59.4276ZM17.9143 12.118C18.0301 11.5214 18.4002 10.9912 18.9434 10.644C19.4866 10.2968 20.1583 10.161 20.8109 10.2666L46.7457 14.4523C47.3621 14.5511 47.9156 14.8576 48.2968 15.3114C48.678 15.7651 48.8592 16.3331 48.8046 16.9031C48.7501 17.4732 48.4637 18.0037 48.0021 18.39C47.5405 18.7763 46.9372 18.9903 46.3114 18.9896C46.1648 18.9894 46.0185 18.9779 45.874 18.9553L19.9391 14.7666C19.2866 14.6608 18.7067 14.3223 18.327 13.8256C17.9474 13.329 17.7989 12.7147 17.9143 12.118ZM16.1832 21.1239C16.2402 20.8282 16.3603 20.5457 16.5367 20.2924C16.7131 20.0392 16.9424 19.8202 17.2114 19.648C17.4804 19.4758 17.7838 19.3538 18.1044 19.2889C18.425 19.2239 18.7564 19.2174 19.0798 19.2696L45.0147 23.4582C45.6354 23.5532 46.1941 23.8587 46.5792 24.3138C46.9644 24.7689 47.1477 25.3401 47.0924 25.9133C47.0372 26.4865 46.7475 27.0196 46.2813 27.4061C45.815 27.7926 45.2065 28.0041 44.5772 27.9983C44.4294 27.9986 44.2819 27.9862 44.1366 27.9612L18.2018 23.7754C17.5497 23.6682 16.9709 23.3288 16.5924 22.8316C16.214 22.3344 16.0668 21.7202 16.1832 21.1239ZM14.449 30.127C14.567 29.5319 14.9381 29.0038 15.481 28.6584C16.0239 28.3129 16.6944 28.1784 17.3456 28.2841L30.3068 30.367C30.9229 30.4657 31.4761 30.772 31.8573 31.2254C32.2385 31.6789 32.42 32.2465 32.3658 32.8163C32.3117 33.3861 32.0259 33.9166 31.5648 34.3032C31.1038 34.6897 30.5011 34.9042 29.8756 34.9042C29.729 34.9041 29.5826 34.8927 29.4381 34.8699L16.4707 32.7756C15.8187 32.669 15.2397 32.3303 14.8606 31.8337C14.4816 31.3371 14.3335 30.7233 14.449 30.127Z" fill="#0B0033"/>
</svg>
