<svg width="100" height="100" viewBox="0 0 100 100" fill="none" xmlns="http://www.w3.org/2000/svg">
<path d="M79.1666 54.1667C78.0615 54.1667 77.0017 54.6057 76.2203 55.3871C75.4389 56.1685 74.9999 57.2283 74.9999 58.3334V59.9167L68.8333 53.7501C66.6559 51.5898 63.713 50.3777 60.6458 50.3777C57.5786 50.3777 54.6357 51.5898 52.4583 53.7501L49.5416 56.6667L39.2083 46.3334C37.0004 44.2317 34.0689 43.0596 31.0208 43.0596C27.9726 43.0596 25.0411 44.2317 22.8333 46.3334L16.6666 52.5001V29.1667C16.6666 28.0617 17.1056 27.0018 17.887 26.2204C18.6684 25.439 19.7282 25.0001 20.8333 25.0001H49.9999C51.105 25.0001 52.1648 24.5611 52.9462 23.7797C53.7276 22.9983 54.1666 21.9385 54.1666 20.8334C54.1666 19.7283 53.7276 18.6685 52.9462 17.8871C52.1648 17.1057 51.105 16.6667 49.9999 16.6667H20.8333C17.518 16.6667 14.3386 17.9837 11.9944 20.3279C9.65021 22.6721 8.33325 25.8515 8.33325 29.1667V79.1667C8.33325 82.4819 9.65021 85.6614 11.9944 88.0056C14.3386 90.3498 17.518 91.6667 20.8333 91.6667H70.8333C74.1485 91.6667 77.3279 90.3498 79.6721 88.0056C82.0163 85.6614 83.3333 82.4819 83.3333 79.1667V58.3334C83.3333 57.2283 82.8943 56.1685 82.1129 55.3871C81.3315 54.6057 80.2717 54.1667 79.1666 54.1667ZM20.8333 83.3334C19.7282 83.3334 18.6684 82.8944 17.887 82.113C17.1056 81.3316 16.6666 80.2718 16.6666 79.1667V64.2917L28.7499 52.2084C29.3621 51.6251 30.1752 51.2997 31.0208 51.2997C31.8663 51.2997 32.6795 51.6251 33.2916 52.2084L46.4999 65.4167L64.4166 83.3334H20.8333ZM74.9999 79.1667C74.9939 79.9643 74.7309 80.7388 74.2499 81.3751L55.4583 62.5001L58.3749 59.5834C58.6736 59.2785 59.0302 59.0363 59.4237 58.8709C59.8172 58.7056 60.2398 58.6204 60.6666 58.6204C61.0934 58.6204 61.516 58.7056 61.9095 58.8709C62.303 59.0363 62.6595 59.2785 62.9583 59.5834L74.9999 71.7084V79.1667ZM94.6249 17.8751L82.1249 5.37506C81.7287 4.99572 81.2614 4.69837 80.7499 4.50006C79.7355 4.08331 78.5977 4.08331 77.5833 4.50006C77.0718 4.69837 76.6045 4.99572 76.2083 5.37506L63.7083 17.8751C62.9237 18.6597 62.4829 19.7238 62.4829 20.8334C62.4829 21.943 62.9237 23.0071 63.7083 23.7917C64.4929 24.5763 65.557 25.0171 66.6666 25.0171C67.7762 25.0171 68.8403 24.5763 69.6249 23.7917L74.9999 18.3751V41.6667C74.9999 42.7718 75.4389 43.8316 76.2203 44.613C77.0017 45.3944 78.0615 45.8334 79.1666 45.8334C80.2717 45.8334 81.3315 45.3944 82.1129 44.613C82.8943 43.8316 83.3333 42.7718 83.3333 41.6667V18.3751L88.7083 23.7917C89.0956 24.1823 89.5564 24.4922 90.0642 24.7038C90.5719 24.9153 91.1165 25.0242 91.6666 25.0242C92.2166 25.0242 92.7612 24.9153 93.269 24.7038C93.7767 24.4922 94.2376 24.1823 94.6249 23.7917C95.0155 23.4044 95.3254 22.9435 95.537 22.4358C95.7485 21.928 95.8574 21.3834 95.8574 20.8334C95.8574 20.2833 95.7485 19.7387 95.537 19.231C95.3254 18.7232 95.0155 18.2624 94.6249 17.8751Z" fill="white"/>
</svg>
